<?xml version="1.0" encoding="UTF-8"?>
<!-- Created with EazyDraw for Mac ( http://www.eazydraw.com/ ) -->

<svg
    version="1.1"
    xmlns:dc="http://purl.org/dc/elements/1.1/"
    xmlns:cc="http://creativecommons.org/ns#"
    xmlns:rdf="http://www.w3.org/1999/02/22-rdf-syntax-ns#"
    xmlns:svg="http://www.w3.org/2000/svg"
    xmlns:xlink="http://www.w3.org/1999/xlink"
    xmlns="http://www.w3.org/2000/svg"
    width="769.985528"
    height="659.983748856"
    viewBox="0, 0, 769.985528, 659.983748856"
    preserveAspectRatio="none"
    id="svg2">
   <defs
       id="defs_7269C646">
      <linearGradient id="linearStops_C5EEEB26">
         <stop id="stop_C5EEEB26_0" offset="0" style="stop-color:#6D5656;stop-opacity:1;"/>
         <stop id="stop_C5EEEB26_1" offset="1" style="stop-color:#000000;stop-opacity:1;"/>
      </linearGradient>
      <linearGradient id="linearGradient_C5EEEB26" x1="1" y1="0.5" x2="0" y2="0.5" gradientUnits="objectBoundingBox" xlink:href="#linearStops_C5EEEB26"/>
      <linearGradient id="linearStops_F6EEEB26">
         <stop id="stop_F6EEEB26_0" offset="0" style="stop-color:#000000;stop-opacity:1;"/>
         <stop id="stop_F6EEEB26_1" offset="1" style="stop-color:#6D5656;stop-opacity:1;"/>
      </linearGradient>
      <linearGradient id="linearGradient_F6EEEB26" x1="0.080617193692" y1="0.772246325546" x2="0.919382806308" y2="0.227753674454" gradientUnits="objectBoundingBox" xlink:href="#linearStops_F6EEEB26"/>
      <linearGradient id="linearGradient_77EEEB26" x1="0.03424954901" y1="0.681869506521" x2="0.96575045099" y2="0.318130493479" gradientUnits="objectBoundingBox" xlink:href="#linearStops_F6EEEB26"/>
   </defs>
   <metadata
       id="metadata7">
      <rdf:RDF>
         <cc:Work
             rdf:about="">
            <dc:format>image/svg+xml</dc:format>
            <dc:type rdf:resource="http://purl.org/dc/dcmitype/StillImage"/>
            <dc:title></dc:title>
         </cc:Work>
      </rdf:RDF>
   </metadata>
   <g
       id="layer_Paper"
       style="fill:#000000;fill-opacity:1;stroke:#000000;stroke-opacity:1;fill-rule:nonzero;stroke-linecap:square;stroke-linejoin:miter;stroke-width:1;stroke-miterlimit:10">
      <g
          id="21EEEB26">
         <path
             style="fill:#1A1A1A;stroke-linecap:butt;stroke-width:1.8;stroke-miterlimit:4"
             id="02EEEB26"
             d="M713.99052,256.9404888 C769.035528,272.9345328 769.035528,272.9345328 769.035528,272.9345328 L717.70572,288.0041508 L752.825502,302.7103128 L715.851252,309.6242928 z"/>
         <path
             style="fill:url(#linearGradient_C5EEEB26);stroke:none"
             id="C5EEEB26"
             d="M197.682084,154.4210928 C190.285416,248.3979408 302.870088,399.0704328 414.131868,411.0343308 C457.607268,415.7092008 521.415396,374.6361528 518.09355,331.0365168 C508.828698,209.4342588 321.126264,203.3238708 197.682084,154.4210928
z"/>
         <path
             style="fill:url(#linearGradient_F6EEEB26);stroke:none"
             id="F6EEEB26"
             d="M0,502.2226548 C121.821984,638.0081928 341.218548,699.2063028 500.780448,633.4869528 C633.89781,578.6594028 720.209916,401.7859128 720.2529,261.5078448 C720.28224,165.4378128 624.067056,56.1721428 481.633416,101.2160268
C417.653226,121.4494308 368.83827,185.7207348 327.605364,244.1009808 C235.477278,366.7236408 153.781236,449.1030348 0,502.2226548 z"/>
         <path
             style="fill:url(#linearGradient_77EEEB26);stroke:none"
             id="77EEEB26"
             d="M91.64061,227.8480428 C99.391626,321.7963428 234.655848,452.4909948 346.397454,446.4797508 C390.060324,444.1308408 446.466024,393.3679788 436.203756,350.8632828 C407.581614,232.3149048 221.32377,256.3475508 91.64061,227.8480428
z"/>
         <path
             style="fill:#1E90FF;stroke:none"
             id="08EEEB26"
             d="M400.551174,153.8761428 C439.276194,157.3362468 507.65886,169.5974508 561.619656,172.9410948 C605.907918,175.6853748 658.238112,174.4987248 694.73691,173.7335268 C721.171836,219.0436128 723.311784,267.3513288 715.851252,309.6242928
C638.021412,322.6578588 580.070466,313.0477668 516.569436,292.7543328 C458.79894,274.2922188 401.499198,246.4752888 359.971092,200.1181248 C378.489888,173.7711468 384.79221,168.0797628 400.551174,153.8761428
z"/>
         <g
             id="28EEEB26">
            <g
                id="48EEEB26">
               <g
                   id="78EEEB26">
                  <path
                      style="fill:#FFFFFF;stroke:none"
                      id="D8EEEB26"
                      d="M688.07242058,264.559574262 C680.416802595,284.642555245 653.679739081,292.268424455 628.353452497,281.592395924 C603.027204872,270.916383817 588.702315006,245.98128199 596.357932991,225.898301007 C604.013550976,205.815320024 630.75065345,198.189467237 656.076901074,208.865479344
C681.403187659,219.541507875 695.728038565,244.476593279 688.07242058,264.559574262 z"/>
                  <path
                      style="fill:#1A1A1A;stroke:none"
                      id="29EEEB26"
                      d="M685.448127649,262.135024967 C679.670295733,277.292010166 660.614723953,283.520908673 642.886362304,276.047705124 C625.157969487,268.574488438 615.470131044,250.229109034 621.24796296,235.072123834 C627.02578421,219.915166615 646.081335488,213.68622699 663.809728305,221.159443677
C681.538089954,228.632647225 691.225948899,246.978067748 685.448127649,262.135024967 z"/>
                  <path
                      style="fill:#FFFFFF;stroke:none"
                      id="89EEEB26"
                      d="M678.302128437,242.679899924 C676.259363193,248.03868554 669.764161885,250.342938512 663.79471882,247.826582857 C657.825244587,245.310214063 654.642031927,238.926127938 656.684797171,233.567342322 C658.72757308,228.208528725 665.222774389,225.904275754 671.192248622,228.420644548
C677.161691687,230.937000203 680.344904346,237.321086327 678.302128437,242.679899924 z"/>
               </g>
            </g>
         </g>
         <path
             style="fill:#1A1A1A;stroke:none"
             id="4AEEEB26"
             d="M685.28916,235.8278208 C675.55197,229.7555388 667.477962,221.4235368 657.786168,215.2765008 C648.453384,208.9799748 638.826588,202.9070808 628.361082,198.6804648 C623.77371,197.0945388 619.18299,195.5175768 614.617146,193.8703068
C611.495424,194.6146428 615.210768,191.8233648 615.860316,190.7903628 C619.020162,187.2639828 622.180044,183.7376028 625.339908,180.2112408 C629.439588,180.7514028 633.061008,183.0095388 637.053948,183.9689028
C647.859672,188.3942208 657.625284,194.9318748 667.390104,201.2447448 C676.984626,207.7197048 685.936728,215.1401688 695.608452,221.4768888 C698.472468,222.0127488 698.318568,224.0047728 696.112002,225.2127348
C692.50437,228.7510848 688.89681,232.2895428 685.28916,235.8278208 z"/>
         <path
             style="fill:#1E90FF;stroke:none"
             id="9AEEEB26"
             d="M408.576672,205.7849928 C389.91069,205.1359668 368.182692,207.4563828 353.877012,190.1940768 C341.281152,176.3939448 331.031664,159.2145288 324.421632,140.4904788 C323.275248,126.8893548 323.26281,110.2744728 310.841118,103.8122928
C296.504478,94.7136887999 279.565146,96.0231168 263.888928,93.5044488 C234.306342,91.5367428001 206.121348,103.8706128 178.54704,114.7816188 C165.456252,119.9197548 149.363802,118.9761588 139.766238,105.8641488
C132.289866,97.2881028 127.746036,86.1814007999 123.026562,75.5493948 C116.11476,68.6667888 115.699662,57.9743747999 125.030052,55.1214108 C130.774482,51.2266067999 136.51893,47.3318208001 142.26336,43.4370348
C151.088904,62.5379868 157.803804,87.0815268001 176.414922,95.5924488 C195.521562,100.4294628 213.24276,87.4434348001 231.254658,82.1825748001 C256.789296,72.4676148 284.076396,71.0052588 310.448682,76.1566608
C325.63377,77.7525948001 344.010096,84.3372828 348.600978,103.9129668 C349.943796,120.8878308 353.003652,137.4218568 363.154032,150.1692048 C372.758274,167.4188208 386.842302,183.8612988 405.33111,184.5703548
C411.450966,186.9710868 431.478072,182.0671668 429.273198,187.9517088 C422.374356,193.8961368 415.475514,199.8405648 408.576672,205.7849928 z"/>
         <path
             style="fill:#1E90FF;stroke:none"
             id="DAEEEB26"
             d="M396.071478,196.8304968 C382.536,188.0040348 365.978286,180.2170548 360.221814,163.9691568 C356.408838,153.0896868 352.492056,142.0892568 350.583228,130.7067408 C348.910542,115.2381168 350.629308,99.6495948001 349.857918,84.1459968
C352.352394,74.2528187999 345.936474,65.1511008001 336.027654,63.3246228 C323.040528,59.5388448 309.302982,60.0366888001 295.987284,58.2029748 C283.747158,57.5358767999 269.13933,60.1988688 259.43103,50.9926968
C252.067842,42.2113428001 248.869206,30.8462868 245.220408,20.2070627999 C244.38384,14.6499948 251.763246,14.4277308 254.971044,11.1417948001 C260.8245,7.427858400091 266.677938,3.713929199947 272.531394,0
C273.80169,10.3518432 278.341812,20.0140488 282.399174,29.5037747999 C287.999226,39.4741368001 300.265344,39.9498768 310.384278,39.6993708001 C326.251458,40.7089188 342.367326,41.0217228 357.905808,44.5466988
C367.700292,46.8350388001 379.243134,53.7691787999 378.212904,65.1717288001 C378.873306,88.7961167999 374.96088,113.2944048 383.082876,136.0747728 C386.439318,146.2649868 389.733066,157.2645888 398.745738,164.0301228
C405.503676,170.2953828 414.002196,174.4112808 421.533216,179.4110508 C415.362456,184.8082788 407.488284,188.8742268 400.666608,193.7878848 C399.134862,194.8020408 397.603134,195.8162328 396.071478,196.8304968
z"/>
      </g>
      <polygon
          style="fill:#FFFFFF;stroke:#FFFFFF"
          id="507C0036"
          points="565.615106535,230.105227729 544.484479673,237.321057559 537.268649843,258.451684422 530.052820012,237.321057559 508.92219315,230.105227729 530.052820012,222.889397899 537.268649843,201.758771036 544.484479673,222.889397899"/>
   </g>
</svg>
