<svg width="1053" height="170" viewBox="0 0 1053 170" fill="none" xmlns="http://www.w3.org/2000/svg">
<path d="M73.9973 35.0579C54.1616 69.8286 42.9756 83.2381 35.8964 77.1848C30.9901 72.9896 47.7987 41.7206 58.7276 21.3898C62.1781 14.9707 65.0426 9.64207 66.4524 6.60013C66.7845 5.88338 66.1105 5.51842 65.5618 6.11847C40.0106 34.0615 -21.3347 135.895 7.5775 162.983C8.93141 164.252 11.0512 163.631 11.7989 161.933L33.1473 113.459C34.035 111.443 36.5449 110.432 38.7533 111.201L48.8546 114.714C51.063 115.483 52.1337 117.739 51.246 119.755L31.2362 165.189C30.3407 167.223 31.8971 169.466 34.0878 169.095C74.8305 162.188 98.0507 93.0493 117.5 36.5C124 14.5 124 14.5 128 0C119.318 15.677 82.7367 82.7294 70.4985 81.4891C61.0082 80.5273 63.8387 71.85 70.8524 50.3486C72.2789 45.9755 73.8785 41.072 75.5826 35.595C75.865 34.6874 74.4765 34.218 73.9973 35.0579Z" fill="#FF5C00"/>
<path d="M200.782 129.157H178.611L171.579 108.423H138.084L131.052 129.157H109L144.163 32.6779H165.5L200.782 129.157ZM154.533 60.2434L144.759 88.7678H164.904L155.249 60.2434H154.533Z" fill="black"/>
<path d="M208.662 159V57.6067H228.806V66.1161H229.522C231.667 62.9201 234.409 60.4432 237.746 58.6854C241.084 56.8477 244.62 55.9288 248.355 55.9288C253.997 55.9288 258.924 57.4469 263.135 60.4832C267.426 63.4395 270.724 67.6742 273.029 73.1873C275.333 78.7004 276.485 85.1723 276.485 92.603C276.485 100.353 275.333 107.105 273.029 112.858C270.724 118.61 267.426 123.045 263.135 126.161C258.844 129.277 253.838 130.835 248.116 130.835C244.302 130.835 240.766 129.916 237.508 128.079C234.329 126.321 231.667 123.844 229.522 120.648H228.806V159H208.662ZM228.33 93.4419C228.33 99.035 229.561 103.509 232.025 106.865C234.488 110.141 237.746 111.779 241.799 111.779C246.09 111.779 249.507 110.141 252.05 106.865C254.593 103.509 255.864 99.035 255.864 93.4419C255.864 87.769 254.633 83.2946 252.169 80.0187C249.706 76.6629 246.408 74.985 242.276 74.985C238.064 74.985 234.687 76.6629 232.144 80.0187C229.601 83.2946 228.33 87.769 228.33 93.4419Z" fill="black"/>
<path d="M306.184 130.835C299.907 130.835 294.702 129.037 290.569 125.442C286.517 121.767 284.49 116.733 284.49 110.341C284.49 105.387 285.881 101.032 288.662 97.2772C291.443 93.5218 295.377 90.6454 300.463 88.6479C305.628 86.5705 311.628 85.5318 318.462 85.5318H324.898V83.7341C324.898 80.2185 323.905 77.5418 321.918 75.7041C320.011 73.7865 317.309 72.8277 313.813 72.8277C308.807 72.8277 304.277 75.3046 300.224 80.2584L287.113 70.191C294.821 60.6829 304.595 55.9288 316.435 55.9288C322.077 55.9288 327.084 57.0874 331.454 59.4045C335.825 61.6417 339.202 64.7978 341.586 68.8727C343.97 72.9476 345.162 77.6617 345.162 83.015V129.157H324.898V121.007H324.183C322.753 124.203 320.448 126.64 317.27 128.318C314.091 129.996 310.396 130.835 306.184 130.835ZM312.502 114.176C316.078 114.176 319.018 113.377 321.322 111.779C323.706 110.101 324.898 107.824 324.898 104.948V102.071H320.488C315.323 102.071 311.469 102.591 308.926 103.629C306.383 104.668 305.111 106.426 305.111 108.903C305.111 110.421 305.747 111.699 307.019 112.738C308.37 113.697 310.197 114.176 312.502 114.176Z" fill="black"/>
<path d="M391.139 130.835C383.829 130.835 377.471 129.317 372.068 126.281C366.744 123.245 362.611 118.93 359.671 113.337C356.811 107.664 355.38 101.032 355.38 93.4419C355.38 85.8514 356.811 79.2197 359.671 73.5468C362.611 67.8739 366.744 63.5194 372.068 60.4832C377.471 57.4469 383.829 55.9288 391.139 55.9288C397.656 55.9288 403.576 57.8464 408.9 61.6816C414.224 65.5169 418.118 70.7104 420.581 77.2622L401.867 84.3333C400.834 81.377 399.205 79.0999 396.98 77.5019C394.835 75.9039 392.451 75.1049 389.828 75.1049C385.617 75.1049 382.239 76.7828 379.696 80.1386C377.233 83.4145 376.001 87.8489 376.001 93.4419C376.001 99.035 377.233 103.469 379.696 106.745C382.239 110.021 385.617 111.659 389.828 111.659C392.451 111.659 394.835 110.86 396.98 109.262C399.205 107.584 400.834 105.307 401.867 102.431L420.581 109.502C418.118 116.054 414.224 121.247 408.9 125.082C403.576 128.918 397.656 130.835 391.139 130.835Z" fill="black"/>
<path d="M430.993 129.157V32.6779H451.138V66.9551H451.734C453.8 63.5194 456.502 60.8427 459.839 58.9251C463.256 56.9276 467.15 55.9288 471.52 55.9288C478.593 55.9288 484.076 58.2459 487.97 62.8801C491.943 67.4345 493.93 73.9463 493.93 82.4157V129.157H473.785V87.0899C473.785 83.4145 472.871 80.5381 471.044 78.4607C469.216 76.3034 466.713 75.2247 463.534 75.2247C459.799 75.2247 456.78 76.4232 454.475 78.8202C452.25 81.1373 451.138 84.3333 451.138 88.4082V129.157H430.993Z" fill="black"/>
<path d="M571.491 88.2884C571.491 93.3221 570.974 97.6367 569.941 101.232H525.361C526.871 109.861 531.719 114.176 539.903 114.176C542.764 114.176 545.347 113.337 547.651 111.659C549.956 109.981 551.783 107.664 553.134 104.708L569.703 111.899C567.319 117.891 563.505 122.566 558.26 125.921C553.095 129.197 546.936 130.835 539.784 130.835C532.632 130.835 526.355 129.357 520.951 126.401C515.547 123.365 511.376 119.09 508.435 113.577C505.575 107.984 504.144 101.472 504.144 94.0412C504.144 86.2909 505.575 79.5793 508.435 73.9064C511.296 68.1536 515.309 63.7191 520.474 60.603C525.719 57.4869 531.838 55.9288 538.831 55.9288C545.347 55.9288 551.068 57.2472 555.995 59.8839C560.922 62.5206 564.736 66.2759 567.438 71.1498C570.14 76.0237 571.491 81.7366 571.491 88.2884ZM550.989 84.573C550.989 80.9775 549.876 78.0612 547.651 75.824C545.506 73.5868 542.565 72.4682 538.831 72.4682C531.997 72.4682 527.626 76.5031 525.719 84.573H550.989Z" fill="black"/>
<path d="M658.286 130.835C649.545 130.835 641.916 128.678 635.4 124.363C628.884 119.969 623.997 114.176 620.739 106.985L638.857 98.4757C640.526 102.79 643.069 106.066 646.486 108.303C649.903 110.541 653.876 111.659 658.405 111.659C663.094 111.659 666.829 110.78 669.61 109.022C672.391 107.265 673.782 104.988 673.782 102.191C673.782 100.194 673.265 98.5556 672.232 97.2772C671.199 95.9189 669.411 94.6804 666.868 93.5618C664.325 92.4432 660.63 91.2047 655.783 89.8464C649.426 88.0087 644.141 86.171 639.93 84.3333C635.718 82.4956 631.983 79.6592 628.725 75.824C625.546 71.9089 623.957 66.7553 623.957 60.3633C623.957 54.7703 625.507 49.7366 628.606 45.2622C631.784 40.7878 636.076 37.3121 641.479 34.8352C646.962 32.2784 653.002 31 659.597 31C676.205 31 688.165 38.5905 695.476 53.7715L677.596 62.5206C675.53 58.206 672.987 55.0899 669.967 53.1723C667.027 51.1748 663.491 50.176 659.359 50.176C655.386 50.176 652.048 51.0549 649.346 52.8127C646.644 54.5705 645.294 56.7278 645.294 59.2846C645.294 61.4419 645.85 63.1997 646.962 64.5581C648.075 65.8365 649.863 67.035 652.326 68.1536C654.869 69.1923 658.604 70.3908 663.531 71.7491C669.808 73.5069 675.053 75.3046 679.265 77.1423C683.476 78.9001 687.172 81.7366 690.35 85.6517C693.529 89.4869 695.118 94.6005 695.118 100.993C695.118 106.985 693.529 112.258 690.35 116.813C687.251 121.287 682.92 124.723 677.358 127.12C671.795 129.597 665.438 130.835 658.286 130.835Z" fill="black"/>
<path d="M706.521 129.157V32.6779H726.665V66.9551H727.261C729.327 63.5194 732.029 60.8427 735.367 58.9251C738.784 56.9276 742.678 55.9288 747.048 55.9288C754.12 55.9288 759.604 58.2459 763.497 62.8801C767.471 67.4345 769.457 73.9463 769.457 82.4157V129.157H749.313V87.0899C749.313 83.4145 748.399 80.5381 746.571 78.4607C744.744 76.3034 742.24 75.2247 739.062 75.2247C735.327 75.2247 732.307 76.4232 730.003 78.8202C727.778 81.1373 726.665 84.3333 726.665 88.4082V129.157H706.521Z" fill="black"/>
<path d="M847.018 88.2884C847.018 93.3221 846.502 97.6367 845.469 101.232H800.889C802.399 109.861 807.246 114.176 815.431 114.176C818.292 114.176 820.874 113.337 823.179 111.659C825.483 109.981 827.311 107.664 828.662 104.708L845.231 111.899C842.847 117.891 839.032 122.566 833.788 125.921C828.622 129.197 822.464 130.835 815.312 130.835C808.16 130.835 801.882 129.357 796.479 126.401C791.075 123.365 786.903 119.09 783.963 113.577C781.102 107.984 779.672 101.472 779.672 94.0412C779.672 86.2909 781.102 79.5793 783.963 73.9064C786.824 68.1536 790.837 63.7191 796.002 60.603C801.247 57.4869 807.365 55.9288 814.358 55.9288C820.874 55.9288 826.596 57.2472 831.523 59.8839C836.45 62.5206 840.264 66.2759 842.966 71.1498C845.668 76.0237 847.018 81.7366 847.018 88.2884ZM826.516 84.573C826.516 80.9775 825.404 78.0612 823.179 75.824C821.033 73.5868 818.093 72.4682 814.358 72.4682C807.524 72.4682 803.154 76.5031 801.247 84.573H826.516Z" fill="black"/>
<path d="M857.962 129.157V57.6067H878.107V66.9551H878.703C880.769 63.5194 883.471 60.8427 886.808 58.9251C890.225 56.9276 894.119 55.9288 898.489 55.9288C905.562 55.9288 911.045 58.2459 914.939 62.8801C918.912 67.4345 920.899 73.9463 920.899 82.4157V129.157H900.754V87.0899C900.754 83.4145 899.84 80.5381 898.013 78.4607C896.185 76.3034 893.682 75.2247 890.503 75.2247C886.768 75.2247 883.749 76.4232 881.444 78.8202C879.219 81.1373 878.107 84.3333 878.107 88.4082V129.157H857.962Z" fill="black"/>
<path d="M944.073 91.4045L909.625 32.6779H934.776L954.205 73.1873H954.92L974.349 32.6779H999.619L965.052 91.4045V129.157H944.073V91.4045Z" fill="black"/>
<path d="M1053 57.6067V129.157H1032.86V120.049H1032.14C1030.15 123.484 1027.49 126.121 1024.15 127.959C1020.9 129.876 1017.08 130.835 1012.71 130.835C1005.64 130.835 1000.08 128.558 996.024 124.004C992.05 119.37 990.064 112.938 990.064 104.708V57.6067H1010.21V100.034C1010.21 103.629 1011.16 106.506 1013.07 108.663C1014.98 110.82 1017.48 111.899 1020.58 111.899C1024.31 111.899 1027.29 110.74 1029.52 108.423C1031.74 106.026 1032.86 102.83 1032.86 98.8352V57.6067H1053Z" fill="black"/>
</svg>
