<?xml version="1.0" encoding="UTF-8"?>
<svg width="180px" height="180px" viewBox="0 0 180 180" version="1.1" xmlns="http://www.w3.org/2000/svg" xmlns:xlink="http://www.w3.org/1999/xlink">
    <title>jpom-logo</title>
    <defs>
        <linearGradient x1="0.0077378419%" y1="0%" x2="99.9922622%" y2="100%" id="linearGradient-1">
            <stop stop-color="#5988FF" offset="0%"></stop>
            <stop stop-color="#0D58FF" offset="100%"></stop>
        </linearGradient>
        <path d="M97.0595063,0 C98.6792225,0 99.9922619,1.31303939 99.9922619,2.93275555 L99.9922619,83.9820475 C98.0456091,82.5565127 95.6960926,81.7868903 93.2832934,81.7844154 L92.9319967,81.7897766 C90.0097544,81.8790045 87.225876,83.0788415 85.1523588,85.1523588 C82.9959008,87.3088167 81.7844154,90.2336013 81.7844154,93.2832934 C81.7887374,95.7018607 82.5669783,98.0555651 84.0052619,100 L2.93275555,100 C1.31303939,100 0,98.6869606 0,97.0672444 L0,23.3072816 C0,21.6875654 1.31303939,20.374526 2.93275555,20.374526 L40.9038149,20.374526 C41.6822604,20.3724639 42.429417,20.6807875 42.979863,21.2312335 C43.530309,21.7816795 43.8386326,22.5288361 43.8365705,23.3072816 L43.8365705,78.9367794 L30.5114911,78.9367794 C29.733676,78.9367794 28.9877182,78.6277935 28.4377198,78.0777952 C27.8877214,77.5277968 27.5787356,76.781839 27.5787356,76.0040238 L27.5787356,34.4192525 C27.5787412,32.7982798 26.2669471,31.4830245 24.64598,31.4787588 L19.113209,31.4787588 C18.3340513,31.4787561 17.5869184,31.7888039 17.036697,32.3404771 C16.4864757,32.8921502 16.1783976,33.6400975 16.1804535,34.4192525 L16.1804535,73.9456782 C16.1783993,77.9092655 17.7520185,81.7111045 20.5546982,84.5137843 C23.357378,87.3164641 27.1592171,88.8900833 31.1228043,88.8880291 L68.8849338,88.8880291 C72.8478917,88.8880291 76.6485371,87.3137502 79.4507714,84.5115159 C82.2530058,81.7092815 83.8272847,77.9086361 83.8272847,73.9456782 L83.8272847,26.0543218 C83.8230153,17.8036584 77.1355972,11.1162403 68.8849338,11.1119709 L2.93275555,11.1119709 C1.31303939,11.1119709 0,9.79893152 0,8.17921535 L0,2.93275555 C0,1.31303939 1.31303939,0 2.93275555,0 Z M69.5271996,20.4054786 C71.1481666,20.4097443 72.4599551,21.7249996 72.4599551,23.3459723 L72.4599551,76.0427145 C72.4599551,76.8205297 72.1509693,77.5664875 71.6009709,78.1164859 C71.0509726,78.6664842 70.3050147,78.9754701 69.5271996,78.9754701 L59.1967809,78.9754701 C57.5758082,78.9754701 56.260553,77.6636816 56.2562872,76.0427145 L56.2562872,34.3573474 C56.2583431,33.5781924 55.950265,32.830245 55.4000437,32.2785719 C54.8498223,31.7268988 54.1026894,31.416851 53.3235317,31.4168537 L49.2842219,31.4168537 C47.6645058,31.4168537 46.3514664,30.1038143 46.3514664,28.4840981 L46.3514664,23.3459723 C46.3514664,21.7249996 47.6632549,20.4097443 49.2842219,20.4054786 Z" id="path-2"></path>
        <filter x="-6.5%" y="-5.5%" width="113.0%" height="113.0%" filterUnits="objectBoundingBox" id="filter-3">
            <feOffset dx="0" dy="1" in="SourceAlpha" result="shadowOffsetOuter1"></feOffset>
            <feGaussianBlur stdDeviation="2" in="shadowOffsetOuter1" result="shadowBlurOuter1"></feGaussianBlur>
            <feColorMatrix values="0 0 0 0 0.239215686   0 0 0 0 0.466666667   0 0 0 0 1  0 0 0 0.4 0" type="matrix" in="shadowBlurOuter1"></feColorMatrix>
        </filter>
    </defs>
	<rect width="100%" height="100%" fill="#fff"></rect>
    <g id="jpom-logo" stroke="none" stroke-width="1" fill="none" fill-rule="evenodd">
        <g id="1" transform="translate(40.000000, 40.000000)" fill-rule="nonzero">
            <g id="2">
                <use fill="black" fill-opacity="1" filter="url(#filter-3)" xlink:href="#path-2"></use>
                <use fill="url(#linearGradient-1)" xlink:href="#path-2"></use>
            </g>
            <rect id="3" fill="#F74C00" x="88" y="88" width="12" height="12" rx="6"></rect>
        </g>
    </g>
</svg>
