<?xml version="1.0" encoding="UTF-8"?>
<svg width="900px" height="400px" viewBox="0 0 900 280" version="1.1" xmlns="http://www.w3.org/2000/svg" xmlns:xlink="http://www.w3.org/1999/xlink">
	<title>jpom-logo</title>
	<defs>
		<linearGradient x1="4.12973655e-08%" y1="0%" x2="100%" y2="100%" id="linearGradient-1">
			<stop stop-color="#5988FF" offset="0%"></stop>
			<stop stop-color="#0D58FF" offset="100%"></stop>
		</linearGradient>
		<linearGradient x1="4.12973655e-08%" y1="41.2533071%" x2="100%" y2="58.7466929%" id="linearGradient-2">
			<stop stop-color="#5988FF" offset="0%"></stop>
			<stop stop-color="#0D58FF" offset="100%"></stop>
		</linearGradient>
	</defs>
	<g id="1" stroke="none" stroke-width="1" fill="none" fill-rule="evenodd">
		<g id="path-2-link" transform="translate(22.000000, 20.000000)" fill="#000000" fill-rule="nonzero">
			<path d="M232.942815,0 C236.830134,0 239.981429,3.15129454 239.981429,7.03861332 L239.981429,201.556914 C235.309462,198.13563 229.670622,196.288537 223.879904,196.282597 L223.036792,196.295464 C216.023411,196.509611 209.342102,199.38922 204.365661,204.365661 C199.190162,209.54116 196.282597,216.560643 196.282597,223.879904 C196.29297,229.684466 198.160748,235.333356 201.612629,240 L7.03861332,240 C3.15129454,240 0,236.848705 0,232.961387 L0,55.9374758 C0,52.050157 3.15129454,48.8988624 7.03861332,48.8988624 L98.1691558,48.8988624 C100.037425,48.8939134 101.830601,49.63389 103.151671,50.9549604 C104.472742,52.2760308 105.212718,54.0692066 105.207769,55.9374758 L105.207769,189.448271 L73.2275786,189.448271 C71.3608224,189.448271 69.5705237,188.706704 68.2505275,187.386708 C66.9305314,186.066712 66.1889654,184.276414 66.1889654,182.409657 L66.1889654,82.606206 C66.1889789,78.7158715 63.040673,75.5592588 59.150352,75.5490211 L45.8717016,75.5490211 C44.0017231,75.5490146 42.2086042,76.2931294 40.8880728,77.617145 C39.5675417,78.9411605 38.8281542,80.736234 38.8330884,82.606206 L38.8330884,177.469628 C38.8281583,186.982237 42.6048444,196.106651 49.3312757,202.833082 C56.0577072,209.559514 65.182121,213.3362 74.6947303,213.33127 L165.323841,213.33127 C174.83494,213.33127 183.956489,209.553 190.681851,202.827638 C197.407214,196.102276 201.185483,186.980727 201.185483,177.469628 L201.185483,62.5303723 C201.175237,42.7287802 185.125433,26.6789767 165.323841,26.6687302 L7.03861332,26.6687302 C3.15129454,26.6687302 0,23.5174356 0,19.6301168 L0,7.03861332 C0,3.15129454 3.15129454,0 7.03861332,0 L232.942815,0 Z M166.865279,48.9731486 C170.7556,48.9833863 173.903892,52.139999 173.903892,56.0303335 L173.903892,182.502515 C173.903892,184.369271 173.162326,186.15957 171.84233,187.479566 C170.522334,188.799562 168.732035,189.541128 166.865279,189.541128 L142.072274,189.541128 C138.18194,189.541128 135.025327,186.392836 135.015089,182.502515 L135.015089,82.4576338 C135.020023,80.5876618 134.280636,78.792588 132.960105,77.4685726 C131.639574,76.1445571 129.846455,75.4004424 127.976476,75.4004489 L118.282133,75.4004489 C114.394814,75.4004489 111.243519,72.2491543 111.243519,68.3618354 L111.243519,56.0303335 C111.243519,52.139999 114.391812,48.9833863 118.282133,48.9731486 L166.865279,48.9731486 Z" id="path-2"></path>
		</g>
		<path d="M254.960842,20 C258.848462,20 262,23.1512945 262,27.0386133 L262,221.556914 C257.327672,218.13563 251.688396,216.288537 245.89723,216.282597 L245.054052,216.295464 C238.040128,216.509611 231.358303,219.38922 226.381476,224.365661 C221.205577,229.54116 218.297787,236.560643 218.297787,243.879904 C218.30816,249.684466 220.176083,255.333356 223.628231,260 L29.039158,260 C25.1515384,260 22,256.848705 22,252.961387 L22,75.9374758 C22,72.050157 25.1515384,68.8988624 29.039158,68.8988624 L120.176753,68.8988624 C122.045167,68.8939134 123.838481,69.63389 125.159654,70.9549604 C126.480826,72.2760308 127.22086,74.0692066 127.215911,75.9374758 L127.215911,209.448271 L95.2332455,209.448271 C93.3663448,209.448271 91.5759075,208.706704 90.2558092,207.386708 C88.9357109,206.066712 88.1940876,204.276414 88.1940876,202.409657 L88.1940876,102.606206 C88.194101,98.7158715 85.0455516,95.5592588 81.1549295,95.5490211 L67.8752515,95.5490211 C66.0051283,95.5490146 64.2118706,96.2931294 62.891237,97.617145 C61.5706037,98.9411605 60.831159,100.736234 60.8360936,102.606206 L60.8360936,197.469628 C60.8311631,206.982237 64.6081415,216.106651 71.3350933,222.833082 C78.0620453,229.559514 87.1871653,233.3362 96.7005107,233.33127 L187.336635,233.33127 C196.84847,233.33127 205.970725,229.553 212.696608,222.827638 C219.422491,216.102276 223.201052,206.980727 223.201052,197.469628 L223.201052,82.5303723 C223.190805,62.7287802 207.13976,46.6789767 187.336635,46.6687302 L29.039158,46.6687302 C25.1515384,46.6687302 22,43.5174356 22,39.6301168 L22,27.0386133 C22,23.1512945 25.1515384,20 29.039158,20 L254.960842,20 Z M188.878192,68.9731486 C192.768814,68.9833863 195.91735,72.139999 195.91735,76.0303335 L195.91735,202.502515 C195.91735,204.369271 195.175727,206.15957 193.855629,207.479566 C192.53553,208.799562 190.745093,209.541128 188.878192,209.541128 L164.083269,209.541128 C160.192633,209.541128 157.035776,206.392836 157.025538,202.502515 L157.025538,102.457634 C157.030472,100.587662 156.291028,98.792588 154.970394,97.4685726 C153.649761,96.1445571 151.856503,95.4004424 149.98638,95.4004489 L140.291286,95.4004489 C136.403667,95.4004489 133.252128,92.2491543 133.252128,88.3618354 L133.252128,76.0303335 C133.252128,72.139999 136.400664,68.9833863 140.291286,68.9731486 L188.878192,68.9731486 Z" id="path-2" fill="url(#linearGradient-1)" fill-rule="nonzero"></path>
		<rect id="7" fill="#F74C00" fill-rule="nonzero" x="233" y="231" width="29" height="29" rx="14"></rect>
		<rect id="8" fill="#F74C00" fill-rule="nonzero" x="850" y="174" width="29" height="29" rx="14"></rect>
		<path d="M792.476271,73.0434783 C805.586759,73.0434783 815.899611,77.483706 823.206813,86.3500895 C830.436398,95.122293 834,107.851794 834,124.474599 L834,193.269791 C834,196.204618 832.408965,198.586197 829.531978,200.226764 C826.979386,201.68235 824.008086,202.401164 820.657338,202.401164 C817.319541,202.401164 814.397497,201.728251 811.924299,200.357115 C809.089358,198.78543 807.547579,196.335115 807.547579,193.269791 L807.547579,130.052587 C807.547579,118.228415 805.696869,109.511262 802.103948,103.917983 C798.676281,98.5819599 793.545511,95.9545497 786.420835,95.9545497 C781.984361,95.9545497 777.577505,97.5251481 773.155621,100.727893 C768.660373,103.983777 764.985053,108.414022 762.124261,114.050489 C759.269441,119.675184 757.841248,125.851127 757.841248,132.609165 L757.841248,193.269791 C757.841248,196.335115 756.299466,198.78543 753.464528,200.357115 C750.991329,201.728251 748.069286,202.401164 744.731489,202.401164 C741.393693,202.401164 738.471646,201.728251 735.99845,200.357115 C733.16351,198.78543 731.621728,196.335115 731.621728,193.269791 L731.621728,130.052587 C731.621728,118.228415 729.771018,109.511262 726.178099,103.917983 C722.753267,98.5863757 717.546252,95.9545497 710.262086,95.9545497 C705.996338,95.9545497 701.671691,97.5555119 697.250026,100.82927 C692.740194,104.168303 689.056662,108.608448 686.192654,114.177966 C683.340019,119.725367 681.915399,125.703592 681.915399,132.144333 L681.915399,193.269791 C681.915399,196.204618 680.324366,198.586197 677.44738,200.226764 C674.900546,201.679066 672.006122,202.401164 668.80564,202.401164 C665.45489,202.401164 662.483592,201.68235 659.930997,200.226764 C657.054011,198.586197 655.462978,196.204618 655.462978,193.269791 L655.462978,83.8017655 C655.462978,80.7142417 657.064389,78.2600537 659.988312,76.6969305 C662.527706,75.3393741 665.477374,74.6703917 668.80564,74.6703917 C671.555091,74.6703917 674.141811,75.3618191 676.52436,76.7335041 C679.269327,78.3138399 680.750893,80.7590143 680.750893,83.8017655 L680.748698,92.8458696 L681.319553,92.0896169 C684.488025,87.9671168 688.127278,84.3770934 692.234717,81.3248574 L693.271331,80.5730053 C700.349456,75.5629336 708.130544,73.0434783 716.550423,73.0434783 C726.376649,73.0434783 734.583095,75.5664595 741.083863,80.6398028 C746.134259,84.5812441 750.005426,89.9708142 752.705208,96.7694373 L752.905975,97.2936957 L753.457852,96.3789787 C756.722357,91.0774976 761.008476,86.4096134 766.303802,82.3843595 L767.3085,81.6371572 C775.161367,75.9230367 783.570743,73.0434783 792.476271,73.0434783 Z M576.898419,73.6942435 C587.989636,73.6942435 598.226981,76.1074759 607.577809,80.9340348 C617.000684,85.7977824 624.556005,93.175223 630.215189,103.017828 C635.871997,112.856295 638.684566,124.885056 638.684566,139.070335 C638.684566,153.099357 635.872184,165.087227 630.219371,174.999334 C624.562997,184.917686 617.011505,192.372417 607.592208,197.315349 C598.237992,202.224129 587.995385,204.678843 576.898419,204.678843 C565.799248,204.678843 555.592672,202.223095 546.313505,197.311357 C539.935013,193.93503 534.406764,189.385807 529.7314,183.665642 C525.603003,189.431407 520.665202,194.008332 514.927874,197.3762 C506.636334,202.243417 497.443746,204.678843 487.395049,204.678843 C477.041554,204.678843 468.343427,202.55978 461.340531,198.284581 C456.786127,195.504162 452.814209,191.893365 449.428254,187.465117 L449.031628,186.93413 L449.033605,240.868626 C449.033605,243.630817 447.624245,245.902932 445.059877,247.528434 L444.565584,247.8256 C442.01875,249.277902 439.124328,250 435.923844,250 C432.573095,250 429.601796,249.281186 427.049203,247.8256 C424.172217,246.185033 422.581184,243.803454 422.581184,240.868626 L422.581184,84.4525307 C422.581184,81.365007 424.182595,78.910819 427.106516,77.3476958 C429.645912,75.9901396 432.59558,75.3211569 435.923844,75.3211569 C438.673297,75.3211569 441.260015,76.0125846 443.642566,77.3842693 C446.387533,78.9646051 447.869096,81.4097798 447.869096,84.4525307 L447.867028,92.5565217 L448.092139,92.260413 C451.260086,88.1315207 455.108552,84.5615206 459.62957,81.5576148 L460.608651,80.9225879 C468.227022,76.0994975 477.173635,73.6942435 487.395049,73.6942435 C497.615994,73.6942435 506.902865,76.2550067 515.205042,81.3721409 C520.722097,84.7726341 525.482443,89.2250249 529.489406,94.7311292 C534.208121,88.9259813 539.826839,84.3227575 546.32795,80.9379394 C555.603736,76.1084802 565.805019,73.6942435 576.898419,73.6942435 Z M481.805417,96.1404827 C471.531562,96.1404827 463.51105,100.089026 457.52312,108.080297 C451.404443,116.246061 448.3349,126.395046 448.3349,138.605503 C448.3349,152.219376 451.33769,162.910716 457.281698,170.746321 C463.105403,178.423334 471.203622,182.232604 481.805417,182.232604 C491.659767,182.232604 499.645585,178.551772 505.943273,171.111421 C511.518385,164.524751 514.673867,155.520183 515.362975,144.049083 L515.422448,143.033383 L515.387772,142.030114 C515.359368,141.053877 515.345173,140.067284 515.345173,139.070335 C515.345173,138.06256 515.359361,137.06573 515.388121,136.068036 L515.415739,135.441922 L515.402363,135.101093 C515.003058,127.814724 513.482004,121.428921 510.85159,115.929057 C507.771951,109.489925 503.668392,104.597655 498.532549,101.204954 C493.411409,97.8219673 487.854513,96.1404827 481.805417,96.1404827 Z M576.898419,96.1404827 C566.408109,96.1404827 558.072022,99.8337085 551.703759,107.271943 C546.265167,113.624306 543.105279,122.165153 542.261709,132.947786 L542.119009,135.047837 L542.15191,135.964061 C542.180076,136.988143 542.194155,138.023567 542.194155,139.070335 C542.194155,140.112406 542.180898,141.1429 542.153839,142.179686 L542.119009,142.929816 L542.176582,143.971265 C542.874559,155.353053 546.065855,164.335799 551.711158,170.993622 C558.080152,178.504934 566.413084,182.232604 576.898419,182.232604 C587.38743,182.232604 595.763454,178.501738 602.21079,170.983465 C608.714875,163.399021 611.999244,152.793087 611.999244,139.070335 C611.999244,125.350669 608.716526,114.786881 602.218255,107.282073 C595.771589,99.8368705 587.392402,96.1404827 576.898419,96.1404827 Z M383.993132,30 C380.50966,30 377.405809,30.7079736 374.713915,32.1406594 C371.632446,33.7806864 369.951767,36.3523577 369.951767,39.5962062 L369.951767,140.929665 C369.951767,151.862058 369.006704,160.274466 367.152167,166.122592 C365.377487,171.718902 362.807396,175.412119 359.500728,177.325991 C356.022511,179.339155 351.305658,180.373274 345.331504,180.373274 C341.560129,180.373274 338.459232,179.910888 336.03465,179.012204 C333.462751,178.058917 330.520933,176.609652 327.219754,174.663021 C326.528161,174.313571 325.866283,173.965309 325.190774,173.594559 L324.161867,173.018611 C323.001173,172.356738 321.687592,171.701317 320.219777,171.050314 C318.848218,170.582359 317.9329,170.379378 317.150438,170.379378 C313.950313,170.379378 311.520756,172.565651 309.805322,176.439716 L309.263644,177.704474 C308.412304,179.846132 308,182.060106 308,184.391492 C308,189.536383 310.358849,193.665406 314.885844,196.552975 L315.462997,196.907439 C323.75383,202.099605 334.900013,204.678843 348.825024,204.678843 C360.560322,204.678843 370.02085,202.571879 377.187439,198.297323 C384.454036,193.963119 389.731761,186.996105 393.012665,177.501301 C396.216757,168.228793 397.801596,155.892804 397.801596,140.464832 L397.801596,39.5962062 C397.801596,36.3730633 396.179169,33.8049205 393.185826,32.1568611 C390.560966,30.71168 387.485439,30 383.993132,30 Z" id="path-4" fill="url(#linearGradient-2)" fill-rule="nonzero"></path>
	</g>
</svg>
