<?xml version="1.0" encoding="UTF-8"?>
<svg width="380px" height="120px" viewBox="0 0 380 120" version="1.1" xmlns="http://www.w3.org/2000/svg" xmlns:xlink="http://www.w3.org/1999/xlink">
    <title>jpom-logo</title>
    <defs>
		<linearGradient x1="0.0077378419%" y1="0%" x2="99.9922622%" y2="100%" id="linearGradient-1">
			<stop stop-color="#5988FF" offset="0%"></stop>
			<stop stop-color="#0D58FF" offset="100%"></stop>
		</linearGradient>
		<path d="M97.0595063,0 C98.6792225,0 99.9922619,1.31303939 99.9922619,2.93275555 L99.9922619,83.9820475 C98.0456091,82.5565127 95.6960926,81.7868903 93.2832934,81.7844154 L92.9319967,81.7897766 C90.0097544,81.8790045 87.225876,83.0788415 85.1523588,85.1523588 C82.9959008,87.3088167 81.7844154,90.2336013 81.7844154,93.2832934 C81.7887374,95.7018607 82.5669783,98.0555651 84.0052619,100 L2.93275555,100 C1.31303939,100 0,98.6869606 0,97.0672444 L0,23.3072816 C0,21.6875654 1.31303939,20.374526 2.93275555,20.374526 L40.9038149,20.374526 C41.6822604,20.3724639 42.429417,20.6807875 42.979863,21.2312335 C43.530309,21.7816795 43.8386326,22.5288361 43.8365705,23.3072816 L43.8365705,78.9367794 L30.5114911,78.9367794 C29.733676,78.9367794 28.9877182,78.6277935 28.4377198,78.0777952 C27.8877214,77.5277968 27.5787356,76.781839 27.5787356,76.0040238 L27.5787356,34.4192525 C27.5787412,32.7982798 26.2669471,31.4830245 24.64598,31.4787588 L19.113209,31.4787588 C18.3340513,31.4787561 17.5869184,31.7888039 17.036697,32.3404771 C16.4864757,32.8921502 16.1783976,33.6400975 16.1804535,34.4192525 L16.1804535,73.9456782 C16.1783993,77.9092655 17.7520185,81.7111045 20.5546982,84.5137843 C23.357378,87.3164641 27.1592171,88.8900833 31.1228043,88.8880291 L68.8849338,88.8880291 C72.8478917,88.8880291 76.6485371,87.3137502 79.4507714,84.5115159 C82.2530058,81.7092815 83.8272847,77.9086361 83.8272847,73.9456782 L83.8272847,26.0543218 C83.8230153,17.8036584 77.1355972,11.1162403 68.8849338,11.1119709 L2.93275555,11.1119709 C1.31303939,11.1119709 0,9.79893152 0,8.17921535 L0,2.93275555 C0,1.31303939 1.31303939,0 2.93275555,0 Z M69.5271996,20.4054786 C71.1481666,20.4097443 72.4599551,21.7249996 72.4599551,23.3459723 L72.4599551,76.0427145 C72.4599551,76.8205297 72.1509693,77.5664875 71.6009709,78.1164859 C71.0509726,78.6664842 70.3050147,78.9754701 69.5271996,78.9754701 L59.1967809,78.9754701 C57.5758082,78.9754701 56.260553,77.6636816 56.2562872,76.0427145 L56.2562872,34.3573474 C56.2583431,33.5781924 55.950265,32.830245 55.4000437,32.2785719 C54.8498223,31.7268988 54.1026894,31.416851 53.3235317,31.4168537 L49.2842219,31.4168537 C47.6645058,31.4168537 46.3514664,30.1038143 46.3514664,28.4840981 L46.3514664,23.3459723 C46.3514664,21.7249996 47.6632549,20.4097443 49.2842219,20.4054786 Z" id="path-2"></path>
		<filter x="-6.5%" y="-5.5%" width="113.0%" height="113.0%" filterUnits="objectBoundingBox" id="filter-3">
			<feOffset dx="0" dy="1" in="SourceAlpha" result="shadowOffsetOuter1"></feOffset>
			<feGaussianBlur stdDeviation="2" in="shadowOffsetOuter1" result="shadowBlurOuter1"></feGaussianBlur>
			<feColorMatrix values="0 0 0 0 0.239215686   0 0 0 0 0.466666667   0 0 0 0 1  0 0 0 0.4 0" type="matrix" in="shadowBlurOuter1"></feColorMatrix>
		</filter>
        <linearGradient x1="0%" y1="41.21675%" x2="100%" y2="58.78325%" id="linearGradient-4">
            <stop stop-color="#5988FF" offset="0%"></stop>
            <stop stop-color="#0D58FF" offset="100%"></stop>
        </linearGradient>
        <path d="M321.177106,22 C326.648252,22 330.951915,23.8568225 334.001288,27.5645829 C337.018271,31.2329589 338.5054,36.5562047 338.5054,43.5075594 L338.5054,72.2764579 C338.5054,73.5037494 337.841444,74.4996824 336.640847,75.1857377 C335.575623,75.7944374 334.335668,76.0950324 332.937365,76.0950324 C331.544467,76.0950324 330.325067,75.8136323 329.292975,75.240248 C328.109924,74.5829978 327.466523,73.558321 327.466523,72.2764579 L327.466523,45.8401728 C327.466523,40.8955189 326.694202,37.2501639 325.194838,34.9111564 C323.764436,32.6797287 321.623311,31.5809935 318.650108,31.5809935 C316.79872,31.5809935 314.959692,32.2377892 313.114393,33.5771188 C311.238478,34.9386702 309.704728,36.7913184 308.510889,39.1483861 C307.319542,41.5005314 306.723542,44.0831986 306.723542,46.9092873 L306.723542,72.2764579 C306.723542,73.558321 306.08014,74.5829978 304.89709,75.240248 C303.864998,75.8136323 302.645598,76.0950324 301.2527,76.0950324 C299.859802,76.0950324 298.640401,75.8136323 297.60831,75.240248 C296.425259,74.5829978 295.781857,73.558321 295.781857,72.2764579 L295.781857,45.8401728 C295.781857,40.8955189 295.009536,37.2501639 293.510173,34.9111564 C292.080954,32.6815753 289.908011,31.5809935 286.868251,31.5809935 C285.088109,31.5809935 283.283388,32.2504868 281.43818,33.6195127 C279.556179,35.0158357 278.019002,36.8726239 276.823821,39.2016947 C275.633386,41.5215173 275.038877,44.0215023 275.038877,46.7149028 L275.038877,72.2764579 C275.038877,73.5037494 274.374922,74.4996824 273.174325,75.1857377 C272.111504,75.793064 270.90363,76.0950324 269.568035,76.0950324 C268.169731,76.0950324 266.929777,75.7944374 265.864552,75.1857377 C264.663955,74.4996824 264,73.5037494 264,72.2764579 L264,26.4989201 C264,25.2077738 264.668286,24.181477 265.88847,23.5278073 C266.948186,22.9601019 268.179114,22.6803456 269.568035,22.6803456 C270.71541,22.6803456 271.794876,22.969488 272.789139,23.5431017 C273.934643,24.2039694 274.552916,25.2264969 274.552916,26.4989201 L274.552,30.281 L274.790224,29.9647489 C276.112461,28.2407943 277.63116,26.7395118 279.345238,25.4631222 L279.777828,25.1487113 C282.731605,23.0535904 285.978736,22 289.492441,22 C293.59303,22 297.017667,23.0550649 299.730507,25.1766448 C301.838091,26.8248839 303.45357,29.0787041 304.580218,31.9217647 L304.664,32.141 L304.894304,31.758482 C306.256617,29.541499 308.04526,27.5894747 310.255056,25.9061867 L310.674327,25.5937203 C313.951412,23.204179 317.460734,22 321.177106,22 Z M231.214173,22.2721382 C235.842656,22.2721382 240.114809,23.2813081 244.017009,25.2996873 C247.949275,27.3336181 251.102191,30.4187296 253.463829,34.534728 C255.824475,38.648996 256.99819,43.6792053 256.99819,49.6112311 C256.99819,55.477913 255.824553,60.4910223 253.465574,64.636085 C251.105109,68.7837598 247.953791,71.9011925 244.023018,73.968237 C240.119404,76.0209992 235.845055,77.0475162 231.214173,77.0475162 C226.582371,77.0475162 222.323058,76.0205671 218.450763,73.9665673 C215.78895,72.5546487 213.481953,70.6522464 211.530874,68.2601777 C209.80805,70.6713158 207.747453,72.5853025 205.353205,73.9936837 C201.893057,76.0290653 198.056892,77.0475162 193.863464,77.0475162 C189.54284,77.0475162 185.913019,76.1613627 182.990636,74.373552 C181.090035,73.2108313 179.432511,71.7008619 178.019516,69.8490491 L177.854,69.627 L177.854825,92.1814255 C177.854825,93.3365234 177.266684,94.2866808 176.196546,94.966436 L175.990272,95.0907053 C174.927451,95.6980316 173.719578,96 172.383982,96 C170.985679,96 169.745724,95.699405 168.6805,95.0907053 C167.479903,94.40465 166.815948,93.408717 166.815948,92.1814255 L166.815948,26.7710583 C166.815948,25.479912 167.484234,24.4536152 168.704417,23.7999455 C169.764134,23.2322402 170.995062,22.9524838 172.383982,22.9524838 C173.531358,22.9524838 174.610823,23.2416263 175.605087,23.8152399 C176.750591,24.4761076 177.368863,25.4986352 177.368863,26.7710583 L177.368,30.16 L177.461941,30.0361727 C178.783959,28.309545 180.389965,26.8166359 182.276634,25.5604571 L182.685215,25.2949004 C185.864442,23.2779717 189.597959,22.2721382 193.863464,22.2721382 C198.128773,22.2721382 202.004283,23.3430028 205.46887,25.4828953 C207.771196,26.9049197 209.757739,28.7668286 211.429887,31.0693813 C213.399057,28.641774 215.743808,26.7167895 218.456791,25.3013201 C222.327675,23.2817281 226.584779,22.2721382 231.214173,22.2721382 Z M191.530851,31.6587473 C187.243462,31.6587473 183.896417,33.3099564 181.39759,36.6517607 C178.844201,40.0665344 177.563248,44.3106557 177.563248,49.4168467 C177.563248,55.109921 178.816344,59.5808448 181.296842,62.8575524 C183.727136,66.0679395 187.106609,67.6609071 191.530851,67.6609071 C195.643176,67.6609071 198.975743,66.1216499 201.603835,63.0102305 C203.930389,60.255805 205.247205,56.4902582 205.534777,51.6932527 L205.559596,51.2685058 L205.545125,50.8489568 C205.533272,50.4407123 205.527348,50.0281371 205.527348,49.6112311 C205.527348,49.189798 205.533269,48.7729418 205.545271,48.355724 L205.556796,48.0938945 L205.551214,47.9513662 C205.38458,44.9043393 204.749828,42.2339124 203.652128,39.9339693 C202.366962,37.2412414 200.654503,35.195383 198.511261,33.7766173 C196.374155,32.3619136 194.055203,31.6587473 191.530851,31.6587473 Z M231.214173,31.6587473 C226.836455,31.6587473 223.357717,33.2031872 220.700173,36.3137216 C218.430591,38.9701643 217.111936,42.5417911 216.759905,47.0508924 L216.700355,47.9290956 L216.714085,48.3122437 C216.725839,48.7404962 216.731714,49.1734918 216.731714,49.6112311 C216.731714,50.0470061 216.726182,50.47794 216.71489,50.911505 L216.700355,51.2251958 L216.724381,51.660711 C217.015654,56.4203676 218.347416,60.1767886 220.703261,62.9609692 C223.36111,66.1020631 226.838531,67.6609071 231.214173,67.6609071 C235.591349,67.6609071 239.086753,66.1007268 241.777295,62.9567219 C244.491519,59.7850452 245.862121,55.3498364 245.862121,49.6112311 C245.862121,43.8739162 244.492208,39.456332 241.78041,36.317958 C239.090148,33.2045095 235.593424,31.6587473 231.214173,31.6587473 Z M150.712743,4 C149.259053,4 147.963783,4.29606168 146.840427,4.89518486 C145.554497,5.58101431 144.853132,6.6564405 144.853132,8.01295896 L144.853132,50.3887689 C144.853132,54.9604969 144.458747,58.4784132 143.684829,60.9239931 C142.944236,63.264268 141.87171,64.8087043 140.491802,65.6090509 C139.040305,66.4509193 137.071912,66.8833693 134.578834,66.8833693 C133.004999,66.8833693 131.710962,66.6900075 130.699158,66.3141946 C129.625877,65.9155473 128.398225,65.3094909 127.020608,64.495445 C126.731999,64.3493116 126.45579,64.2036746 126.173893,64.0486339 L125.744519,63.8077828 C125.260149,63.5309997 124.711978,63.2569143 124.099443,62.9846766 C123.527077,62.7889863 123.145105,62.7041037 122.818575,62.7041037 C121.483129,62.7041037 120.469249,63.6183631 119.75338,65.2384268 L119.527332,65.7673253 C119.172059,66.6629279 119,67.5887714 119,68.5637149 C119,70.7152148 119.984373,72.4418969 121.873536,73.6494261 L122.114388,73.7976565 C125.574241,75.9689259 130.225662,77.0475162 136.036717,77.0475162 C140.933982,77.0475162 144.881961,76.1664222 147.872655,74.3788806 C150.905083,72.5663953 153.107534,69.6529168 154.47669,65.6823622 C155.813792,61.8047679 156.475162,56.6460815 156.475162,50.1943844 L156.475162,8.01295896 C156.475162,6.66509921 155.798106,5.59114857 154.548952,4.90196011 C153.45357,4.29761162 152.17012,4 150.712743,4 Z" id="path-5"></path>
        <filter x="-3.0%" y="-6.0%" width="105.9%" height="114.1%" filterUnits="objectBoundingBox" id="filter-6">
            <feOffset dx="0" dy="1" in="SourceAlpha" result="shadowOffsetOuter1"></feOffset>
            <feGaussianBlur stdDeviation="2" in="shadowOffsetOuter1" result="shadowBlurOuter1"></feGaussianBlur>
            <feColorMatrix values="0 0 0 0 0.239215686   0 0 0 0 0.466666667   0 0 0 0 1  0 0 0 0.4 0" type="matrix" in="shadowBlurOuter1"></feColorMatrix>
        </filter>
    </defs>
    <g id="jpom-logo" stroke="none" stroke-width="1" fill="none" fill-rule="evenodd">
        <g id="1" transform="translate(12.000000, 10.000000)" fill-rule="nonzero">
            <g id="2">
                <use fill="black" fill-opacity="1" filter="url(#filter-3)" xlink:href="#path-2"></use>
                <use fill="url(#linearGradient-1)" xlink:href="#path-2"></use>
            </g>
            <rect id="4" fill="#F74C00" x="345" y="64" width="12" height="12" rx="6"></rect>
            <g id="5">
                <use fill="black" fill-opacity="1" filter="url(#filter-6)" xlink:href="#path-5"></use>
                <use fill="url(#linearGradient-4)" xlink:href="#path-5"></use>
            </g>
			<rect id="3" fill="#F74C00" x="88" y="88" width="12" height="12" rx="6"></rect>
        </g>
    </g>
</svg>
