<?xml version="1.0" standalone="no"?><!DOCTYPE svg PUBLIC "-//W3C//DTD SVG 1.1//EN" "http://www.w3.org/Graphics/SVG/1.1/DTD/svg11.dtd"><svg t="1712310744977" class="icon" viewBox="0 0 1024 1024" version="1.1" xmlns="http://www.w3.org/2000/svg" p-id="1462" width="200" height="200" xmlns:xlink="http://www.w3.org/1999/xlink"><path d="M849.92 51.2H174.08c-67.8656 0-122.88 55.0144-122.88 122.88v675.84c0 67.8656 55.0144 122.88 122.88 122.88h675.84c67.8656 0 122.88-55.0144 122.88-122.88V174.08c0-67.8656-55.0144-122.88-122.88-122.88z m-97.17248 383.4112c-1.00352 4.61824-3.61472 10.84928-7.22944 19.18976l-0.50688 0.50176c-21.69856 46.01344-77.66016 136.13568-77.66016 136.13568l-0.50688-0.50176-16.57344 28.43136h79.17056L578.33472 819.2l34.16064-136.63744h-62.09024l21.69856-90.624c-17.58208 4.1216-38.28224 9.85088-62.592 18.08384 0 0-33.15712 19.18976-95.24736-37.26848 0 0-41.89696-37.2736-17.58208-46.01344 10.34752-4.1216 50.23232-8.84736 81.78176-12.95872 42.3936-5.72928 68.81792-8.84736 68.81792-8.84736s-130.90816 2.10944-161.95584-3.10784c-31.04256-4.62336-70.4256-56.97024-78.6688-102.48192 0 0-12.95872-24.81664 27.9296-12.95872 40.39168 11.8528 210.18112 46.01344 210.18112 46.01344S324.2496 365.2864 309.78048 348.70784c-14.46912-16.57856-42.99776-90.01984-39.38304-135.13216 0 0 1.50528-11.35104 12.95872-8.23808 0 0 162.55488 74.5472 273.77664 114.93376 111.8208 41.40032 208.57344 62.09536 195.61472 114.33984z" fill="#3296FA" p-id="1463"></path></svg>