<svg xmlns="http://www.w3.org/2000/svg" xmlns:xlink="http://www.w3.org/1999/xlink" viewBox="0 0 286.06 244.96"><defs><style>.cls-1{fill:url(#未命名的渐变);}.cls-2{fill:url(#未命名的渐变_2);}.cls-3{fill:url(#未命名的渐变_3);}.cls-4{fill:url(#未命名的渐变_4);}</style><linearGradient id="未命名的渐变" x1="70.55" y1="236.94" x2="131.43" y2="103.77" gradientTransform="matrix(1, 0, 0, -1, 0, 260.71)" gradientUnits="userSpaceOnUse"><stop offset="0" stop-color="#57a4f7"/><stop offset="1" stop-color="#2158f9"/></linearGradient><linearGradient id="未命名的渐变_2" x1="107.74" y1="190.98" x2="226.34" y2="190.98" gradientTransform="matrix(1, 0, 0, -1, 0, 260.71)" gradientUnits="userSpaceOnUse"><stop offset="0" stop-color="#2158f9"/><stop offset="1" stop-color="#33e1e5"/></linearGradient><linearGradient id="未命名的渐变_3" x1="73.38" y1="235.21" x2="228.88" y2="235.21" gradientTransform="matrix(1, 0, 0, -1, 0, 260.71)" gradientUnits="userSpaceOnUse"><stop offset="0" stop-color="#255df9"/><stop offset="1" stop-color="#7c35ba"/></linearGradient><linearGradient id="未命名的渐变_4" x1="139.1" y1="94.71" x2="207.46" y2="176.68" gradientTransform="matrix(1, 0, 0, -1, 0, 260.71)" gradientUnits="userSpaceOnUse"><stop offset="0" stop-color="#54a0f7"/><stop offset="1" stop-color="#2158f9"/></linearGradient></defs><g id="图层_2" data-name="图层 2"><g id="图层_1-2" data-name="图层 1"><path class="cls-1" d="M154.38,138a163.09,163.09,0,0,1-27.2,24.6,165.33,165.33,0,0,1-43.6-45.4,163.29,163.29,0,0,1-16-31.8,156.64,156.64,0,0,1-6.2-20.5,169.89,169.89,0,0,1-4.2-37.3V23.8a156.41,156.41,0,0,1,16.2-8.6A164,164,0,0,0,81.88,51a153.23,153.23,0,0,0,8.2,19,165.46,165.46,0,0,0,19,29.1A164.17,164.17,0,0,0,154.38,138Z"/><path class="cls-2" d="M226.34,58.27a183.3,183.3,0,0,1-5.6,22.1,164.91,164.91,0,0,0-30-2.7H188a164.7,164.7,0,0,0-61.3,12.9,148,148,0,0,1-19-29,163.57,163.57,0,0,1,63.5-12.7,167.83,167.83,0,0,1,22.5,1.5A161.64,161.64,0,0,1,226.34,58.27Z"/><path class="cls-3" d="M228.88,29.3c0,4.4-.2,8.8-.5,13.2a165.66,165.66,0,0,0-33.6-10.3,168.14,168.14,0,0,0-31.1-2.9,165.13,165.13,0,0,0-63.8,12.8,167.16,167.16,0,0,0-18,8.9,164,164,0,0,1-8.5-35.8,169.09,169.09,0,0,1,19.8-7.7,166.22,166.22,0,0,1,100,.4,167.63,167.63,0,0,1,35.7,16.4Z"/><path class="cls-4" d="M220.74,80.37a159.64,159.64,0,0,1-30.5,53.9,157.54,157.54,0,0,1-13.9,14.4,167.72,167.72,0,0,1-33.5,23.7,179.65,179.65,0,0,1-15.7-9.8,158.84,158.84,0,0,0,27.2-24.6,182.67,182.67,0,0,0,11.6-14.7A163.29,163.29,0,0,0,188,77.67h2.7A156.47,156.47,0,0,1,220.74,80.37Z"/><path d="M0,214v-7.22H48.53V214H28.21v30.67H20.32V214Z"/><path d="M54.71,240.87a12.22,12.22,0,0,1-2.75-4,11.68,11.68,0,0,1-1-4.83V219.28a11.11,11.11,0,0,1,1-4.76,13.32,13.32,0,0,1,2.75-4,12.2,12.2,0,0,1,4-2.76,11.35,11.35,0,0,1,4.76-1H86.94a11.18,11.18,0,0,1,4.77,1,13.61,13.61,0,0,1,4,2.76,12.17,12.17,0,0,1,2.75,4,11.36,11.36,0,0,1,1,4.76v12.81a11.68,11.68,0,0,1-1,4.83,12.22,12.22,0,0,1-2.75,4,19.39,19.39,0,0,1-1.87,1.49,19.07,19.07,0,0,1-2.08,1.19,11.76,11.76,0,0,1-2.31.74,13.69,13.69,0,0,1-2.53.3H63.49a9.19,9.19,0,0,1-2.53-.3,11.66,11.66,0,0,1-2.3-.74,12,12,0,0,1-2.09-1.19A8.82,8.82,0,0,1,54.71,240.87Zm4.17-8.11a4.48,4.48,0,0,0,.37,1.71,7.14,7.14,0,0,0,1,1.49,5.68,5.68,0,0,0,1.49,1,3.37,3.37,0,0,0,1.71.37H86.94a4.44,4.44,0,0,0,1.71-.37,6.65,6.65,0,0,0,1.49-1,5.25,5.25,0,0,0,1-1.49,3.38,3.38,0,0,0,.38-1.71V218.61a4.35,4.35,0,0,0-.38-1.78,5,5,0,0,0-1-1.49,4,4,0,0,0-1.49-1,5.21,5.21,0,0,0-1.79-.37H63.49a4.52,4.52,0,0,0-1.78.37,4.92,4.92,0,0,0-1.49,1,3.93,3.93,0,0,0-1,1.49,5.15,5.15,0,0,0-.37,1.78Z"/><path d="M110.09,206.7h33.8a12.84,12.84,0,0,1,3.5.45,10.84,10.84,0,0,1,2.82,1.26,14,14,0,0,1,2.24,1.87,13.22,13.22,0,0,1,1.56,2.38,10.18,10.18,0,0,1,1,2.68,12.32,12.32,0,0,1,.3,2.83,13,13,0,0,1-.3,2.9,10.18,10.18,0,0,1-1,2.68,16.8,16.8,0,0,1-1.56,2.38,7.89,7.89,0,0,1-2.24,1.86,10.85,10.85,0,0,1-2.82,1.27,13.25,13.25,0,0,1-3.5.44H113.67v14.89h-7.89V211a4.58,4.58,0,0,1,.29-1.79,4.32,4.32,0,0,1,.9-1.34,4.19,4.19,0,0,1,1.34-.89A6.3,6.3,0,0,1,110.09,206.7Zm33.65,15.78a3.52,3.52,0,0,0,1.56-.37,3.38,3.38,0,0,0,1.12-1,3.75,3.75,0,0,0,.67-1.34,5.64,5.64,0,0,0,0-3.12,3.75,3.75,0,0,0-.67-1.34,3.38,3.38,0,0,0-1.12-1,3.52,3.52,0,0,0-1.56-.37H113.67v8.48Z"/><path d="M160.49,206.7h7.89v37.89h-7.89Z"/><path d="M172.54,244.67l23.6-35.51c1.19-1.86,2.46-2.76,3.57-2.76s2.39.9,3.58,2.76l23.59,35.51h-9.6l-17.57-26.58-17.56,26.58Z"/><path d="M231.87,211.09a4.53,4.53,0,0,1,.3-1.78,4.19,4.19,0,0,1,.89-1.34,4.38,4.38,0,0,1,1.34-.9,4.58,4.58,0,0,1,1.79-.29h3.2a3.39,3.39,0,0,1,.89.15,4.28,4.28,0,0,1,.9.37,2.81,2.81,0,0,1,.74.52,5.17,5.17,0,0,1,.6.67L259,233.35l16.45-24.86a5.06,5.06,0,0,1,.59-.67,4.83,4.83,0,0,1,.75-.52,4,4,0,0,1,.89-.37,3.53,3.53,0,0,1,.89-.15h3.2a4.58,4.58,0,0,1,1.79.29,4.38,4.38,0,0,1,1.34.9,4.19,4.19,0,0,1,.89,1.34,4.35,4.35,0,0,1,.3,1.78v33.58h-7.89v-26l-15.63,23.52-.67.89a7.45,7.45,0,0,1-.82.89,3.82,3.82,0,0,1-1,.68A3.26,3.26,0,0,1,259,245a2.11,2.11,0,0,1-1.12-.29,2.9,2.9,0,0,1-1-.68,8.39,8.39,0,0,1-.82-.89l-.67-.89-15.63-23.52v26h-7.89Z"/></g></g></svg>
