<svg width="1920" height="1080" viewBox="0 0 1920 1080" fill="none" xmlns="http://www.w3.org/2000/svg">
<g clip-path="url(#clip0_38_7182)">
<rect width="1920" height="1080" fill="#F6F7F7"/>
<rect opacity="0.3" width="1920" height="1080" fill="url(#paint0_linear_38_7182)"/>
<rect width="1920" height="1080" fill="url(#paint1_radial_38_7182)"/>
<mask id="mask0_38_7182" style="mask-type:luminance" maskUnits="userSpaceOnUse" x="0" y="0" width="1920" height="1080">
<rect width="1920" height="1080" fill="white"/>
</mask>
<g mask="url(#mask0_38_7182)">
<g opacity="0.1">
<g filter="url(#filter0_f_38_7182)">
<ellipse cx="1788.29" cy="88.5466" rx="318.555" ry="215.112" transform="rotate(140 1788.29 88.5466)" fill="#0084FE"/>
</g>
<g filter="url(#filter1_f_38_7182)">
<ellipse cx="913.228" cy="105.066" rx="257.693" ry="166.894" transform="rotate(174.204 913.228 105.066)" fill="#00EFFE"/>
</g>
<g filter="url(#filter2_f_38_7182)">
<ellipse cx="1079.3" cy="106.865" rx="158.646" ry="123.476" transform="rotate(174.204 1079.3 106.865)" fill="#0094FF"/>
</g>
<g filter="url(#filter3_f_38_7182)">
<ellipse cx="164.304" cy="185.865" rx="158.646" ry="123.476" transform="rotate(174.204 164.304 185.865)" fill="#0094FF"/>
</g>
<g filter="url(#filter4_f_38_7182)">
<ellipse cx="1605.75" cy="923.127" rx="616.106" ry="270.361" transform="rotate(140 1605.75 923.127)" fill="url(#paint2_angular_38_7182)"/>
</g>
<g filter="url(#filter5_f_38_7182)">
<ellipse cx="1605.75" cy="923.14" rx="616.106" ry="270.361" transform="rotate(140 1605.75 923.14)" fill="url(#paint3_angular_38_7182)"/>
</g>
</g>
</g>
<path d="M-60.8823 -77C-95.7157 340.5 -134.475 1162.7 -16.3827 965.5C138.118 707.5 1015 450 1123 542.5C1039 444 985.983 429.084 578.618 401.5C69.118 367 14.1177 64.1667 -60.8823 -77Z" fill="url(#paint4_linear_38_7182)" stroke="url(#paint5_linear_38_7182)"/>
<path d="M-60.8823 -77C-95.7157 340.5 -134.475 1162.7 -16.3827 965.5C138.118 707.5 1015 450 1123 542.5C1039 444 985.983 429.084 578.618 401.5C69.118 367 14.1177 64.1667 -60.8823 -77Z" fill="url(#paint6_linear_38_7182)" stroke="url(#paint7_linear_38_7182)"/>
<path d="M-20.3827 505C44.4173 696.2 610 581 1037 501C193 489.5 120.617 277 -28.8827 91.5C-53.0493 149.667 -85.1827 313.8 -20.3827 505Z" fill="url(#paint8_linear_38_7182)" stroke="url(#paint9_linear_38_7182)"/>
<path d="M883.617 512.491C1016 493.624 1093.5 497 1123.5 552C1123.5 475 1029.12 382.991 752.617 376.491C383.1 367.804 166.031 266.49 127.118 144.991C95.7845 47.1576 100.371 -62.0403 59.6186 235.991C10.1177 598 673.118 542.491 883.617 512.491Z" fill="url(#paint10_linear_38_7182)" stroke="url(#paint11_linear_38_7182)"/>
<path d="M1123.5 552C1123.5 475 1029.12 382.991 752.618 376.491C383.1 367.804 166.031 266.491 127.118 144.991" stroke="url(#paint12_linear_38_7182)"/>
<path d="M1123.5 552C1123.5 475 1029.12 420.991 752.618 414.491C383.1 405.804 130.031 304.491 91.1177 182.991" stroke="url(#paint13_linear_38_7182)" stroke-width="2"/>
<path d="M1123.5 552C1123.5 475 1029.12 432.991 752.618 426.491C383.1 417.804 118.031 316.491 79.1177 194.991" stroke="url(#paint14_linear_38_7182)"/>
<path d="M1123.5 552C1123.5 475 1029.12 444.991 752.618 438.491C383.1 429.804 106.031 328.491 67.1177 206.991" stroke="url(#paint15_linear_38_7182)"/>
<path d="M1123.5 552C1123.5 475 1029.12 456.991 752.618 450.491C383.1 441.804 94.0307 340.491 55.1177 218.991" stroke="url(#paint16_linear_38_7182)"/>
<path d="M1123.5 552C1123.5 475 1029.12 468.991 752.618 462.491C383.1 453.804 82.0307 352.491 43.1177 230.991" stroke="url(#paint17_linear_38_7182)" stroke-width="2"/>
<path d="M1123.5 552C1123.5 475 1029.12 480.991 752.618 474.491C383.1 465.804 70.0307 364.491 31.1177 242.991" stroke="url(#paint18_linear_38_7182)"/>
<path d="M1123.5 552C1123.5 475 1029.12 492.99 752.618 486.49C453.635 479.462 183.751 411.794 71 321.857" stroke="url(#paint19_linear_38_7182)"/>
<path d="M1123.5 552C1123.5 475 1029.12 504.99 752.618 498.49C453.635 491.462 171.751 423.794 59 333.857" stroke="url(#paint20_linear_38_7182)"/>
<path d="M1123.5 552C1123.5 475 1029.12 516.99 752.618 510.49C489.791 504.312 231.677 451.273 96.5 377.44" stroke="url(#paint21_linear_38_7182)"/>
<path d="M149.117 444.5C38.7174 334.1 203.116 81 321.116 -27L2.6164 -94C-20.5503 63.8333 -7.38185 333 149.117 444.5Z" fill="url(#paint22_linear_38_7182)"/>
<path d="M321.116 -27C203.116 81 38.7172 334.1 149.117 444.5" stroke="url(#paint23_linear_38_7182)" stroke-width="2"/>
<path d="M533.118 1150C443.918 693.2 819.951 565.667 1019.12 559C640.318 629.4 848.284 982.333 999.618 1150H533.118Z" fill="url(#paint24_linear_38_7182)" stroke="url(#paint25_linear_38_7182)"/>
<path d="M803.617 1150C357.617 738 819.95 565.667 1019.12 559C644.117 644.5 909.117 995.5 1754.62 1110C1724.95 1110 1105.62 1150 803.617 1150Z" fill="url(#paint26_linear_38_7182)" stroke="url(#paint27_linear_38_7182)"/>
<g filter="url(#filter6_b_38_7182)">
<path d="M1022.12 562C1492.12 705.6 1631.28 228.5 1642.12 -28H1960.62L1947.62 590.5C1611.45 694.5 1058.62 816.5 1022.12 562Z" fill="url(#paint28_linear_38_7182)" fill-opacity="0.66"/>
<path d="M1022.12 562C1492.12 705.6 1631.28 228.5 1642.12 -28H1960.62L1947.62 590.5C1611.45 694.5 1058.62 816.5 1022.12 562Z" stroke="url(#paint29_linear_38_7182)"/>
</g>
<g opacity="0.65" filter="url(#filter7_f_38_7182)">
<path d="M1526.53 647.04C1476.88 578.363 1625.99 547.5 1703 374.5C1922 -117.5 1985.5 -26.4996 2091.71 238.451C2141.36 307.127 2055.09 454.267 1899.02 567.096C1742.95 679.925 1576.18 715.717 1526.53 647.04Z" fill="#0038FE" fill-opacity="0.44"/>
</g>
<path d="M958.118 582.5C1534.62 923.5 1888.12 216 1872.62 -28H1960.62L1932.12 779.5C1602.62 883.5 909.618 863.5 958.118 582.5Z" fill="url(#paint30_linear_38_7182)" stroke="url(#paint31_linear_38_7182)"/>
<path d="M1872.62 -28C1888.12 216 1534.62 923.5 958.118 582.5" stroke="url(#paint32_linear_38_7182)"/>
<path d="M1884.62 -16C1900.12 228 1534.62 923.5 958.118 582.5" stroke="url(#paint33_radial_38_7182)" stroke-width="0.5"/>
<path d="M1896.62 -4C1912.12 240 1534.62 923.5 958.118 582.5" stroke="url(#paint34_radial_38_7182)" stroke-width="0.5"/>
<path d="M1908.62 8C1924.12 252 1534.62 923.5 958.118 582.5" stroke="url(#paint35_radial_38_7182)" stroke-width="0.5"/>
<path d="M1920.62 20C1936.12 264 1534.62 923.5 958.118 582.5" stroke="url(#paint36_radial_38_7182)" stroke-width="0.5"/>
<path d="M1932.62 32C1948.12 276 1534.62 923.5 958.118 582.5" stroke="url(#paint37_radial_38_7182)" stroke-width="0.5"/>
<path d="M1944.62 44C1960.12 288 1534.62 923.5 958.118 582.5" stroke="url(#paint38_radial_38_7182)" stroke-width="0.5"/>
<path d="M1956.62 56C1972.12 300 1534.62 923.5 958.118 582.5" stroke="url(#paint39_radial_38_7182)" stroke-width="0.5"/>
<path d="M1968.62 68C1984.12 312 1534.62 923.5 958.118 582.5" stroke="url(#paint40_radial_38_7182)" stroke-width="0.5"/>
<path d="M1980.62 80C1996.12 324 1534.62 923.5 958.118 582.5" stroke="url(#paint41_radial_38_7182)" stroke-width="0.5"/>
<path d="M1992.62 92C2008.12 336 1534.62 923.5 958.118 582.5" stroke="url(#paint42_radial_38_7182)" stroke-width="0.5"/>
<path d="M2004.62 104C2020.12 348 1534.62 923.5 958.118 582.5" stroke="url(#paint43_radial_38_7182)" stroke-width="0.5"/>
<path d="M2016.62 116C2032.12 360 1534.62 923.5 958.118 582.5" stroke="url(#paint44_radial_38_7182)" stroke-width="0.5"/>
<path d="M958.118 582.5C909.618 863.5 1602.62 883.5 1932.12 779.5" stroke="url(#paint45_linear_38_7182)" stroke-width="0.5"/>
<path d="M958.118 582.5C909.618 863.5 1590.62 871.5 1920.12 767.5" stroke="url(#paint46_linear_38_7182)" stroke-width="0.5"/>
<path d="M958.118 582.5C909.618 863.5 1607 863 1954 742" stroke="url(#paint47_linear_38_7182)" stroke-width="0.5"/>
<path d="M958.118 582.5C909.618 863.5 1595 851 1942 730" stroke="url(#paint48_linear_38_7182)" stroke-width="0.5"/>
<path d="M958.118 582.5C909.618 863.5 1643 825.5 1942 712.5" stroke="url(#paint49_linear_38_7182)" stroke-width="0.5"/>
<path d="M958.118 582.5C909.618 863.5 1704 797.5 1942 695.5" stroke="url(#paint50_linear_38_7182)" stroke-width="0.5"/>
<path d="M958.118 582.5C934 863 1697.5 775.5 1942 677" stroke="url(#paint51_linear_38_7182)" stroke-width="2"/>
<path d="M958.118 582.5C958.118 862 1697.5 754.5 1942 656" stroke="url(#paint52_linear_38_7182)" stroke-width="0.5"/>
<g filter="url(#filter8_b_38_7182)">
<path d="M1893.62 351L1844.12 327C1728.12 522.991 1364.62 797.5 982.118 612.5C1358.12 873.7 1746.45 547 1893.62 351Z" fill="url(#paint53_linear_38_7182)" fill-opacity="0.66"/>
<path d="M1893.62 351L1844.12 327C1728.12 522.991 1364.62 797.5 982.118 612.5C1358.12 873.7 1746.45 547 1893.62 351Z" stroke="url(#paint54_linear_38_7182)"/>
</g>
<g opacity="0.44" filter="url(#filter9_b_38_7182)">
<path d="M1611.12 931.505L1724.96 796.733C1520.62 842.5 876.118 831 965.617 571.503C770.118 863.5 1401.62 969.505 1611.12 931.505Z" fill="url(#paint55_linear_38_7182)"/>
<path d="M1611.12 931.505L1724.96 796.733C1520.62 842.5 876.118 831 965.617 571.503C770.118 863.5 1401.62 969.505 1611.12 931.505Z" stroke="url(#paint56_linear_38_7182)"/>
</g>
<path opacity="0.21" d="M1409 566C1508 538.5 1619.17 444.167 1677 373.5C1648.17 346.667 1597.4 316.1 1591 356.5C1583 407 1464 505.5 1409 566Z" fill="url(#paint57_linear_38_7182)"/>
<path fill-rule="evenodd" clip-rule="evenodd" d="M1638.7 199.051C1641.52 195.915 1645.75 194.431 1649.91 195.112L1718.92 206.403C1723.57 207.165 1727.39 210.507 1728.76 215.021L1752.76 293.997C1754.13 298.504 1752.83 303.397 1749.39 306.621L1719.12 335.047L1661.93 290.227C1661.26 289.701 1660.65 289.107 1660.1 288.454L1610.89 229.975L1638.7 199.051Z" fill="url(#paint58_linear_38_7182)"/>
<path fill-rule="evenodd" clip-rule="evenodd" d="M1608.93 241.02C1606.21 232.066 1614.02 223.447 1623.2 225.281L1691.95 239.027C1696.43 239.921 1700.05 243.203 1701.37 247.567L1723.91 321.727C1726.63 330.681 1718.81 339.3 1709.64 337.466L1640.88 323.72C1636.41 322.826 1632.79 319.544 1631.46 315.18L1608.93 241.02Z" fill="url(#paint59_linear_38_7182)"/>
<g filter="url(#filter10_bd_38_7182)">
<path fill-rule="evenodd" clip-rule="evenodd" d="M1608.29 239.025C1604.41 238.298 1600.41 239.468 1597.54 242.175L1569.28 268.75L1569.33 268.8C1572.09 265.759 1576.33 264.066 1580.92 264.982L1649.67 278.728C1654.14 279.622 1657.76 282.904 1659.09 287.268L1681.62 361.428C1682.87 365.519 1681.91 369.54 1679.63 372.526L1706.27 348.261C1709.8 345.043 1711.17 340.081 1709.78 335.509L1686.99 260.534C1685.65 256.117 1681.96 252.814 1677.43 251.965L1608.29 239.025Z" fill="url(#paint60_linear_38_7182)"/>
</g>
<g filter="url(#filter11_b_38_7182)">
<path fill-rule="evenodd" clip-rule="evenodd" d="M1566.65 280.72C1563.92 271.766 1571.74 263.147 1580.92 264.982L1649.67 278.727C1654.14 279.622 1657.76 282.903 1659.09 287.267L1681.62 361.427C1684.35 370.381 1676.53 379 1667.35 377.166L1598.6 363.42C1594.13 362.526 1590.51 359.245 1589.18 354.88L1566.65 280.72Z" fill="#F9FBFE" fill-opacity="0.398629"/>
<path d="M1580.72 265.962L1649.47 279.708C1653.59 280.53 1656.91 283.546 1658.13 287.558L1680.67 361.718C1683.17 369.949 1675.98 377.872 1667.55 376.185L1598.8 362.439C1594.68 361.618 1591.36 358.601 1590.14 354.59L1567.6 280.429C1565.1 272.199 1572.29 264.276 1580.72 265.962Z" stroke="url(#paint61_linear_38_7182)" stroke-width="2"/>
</g>
<path fill-rule="evenodd" clip-rule="evenodd" d="M1640.41 332.09C1642.88 332.662 1645.02 335.738 1644.14 337.235L1643.97 337.469L1636.58 345.362C1635.78 346.219 1633.93 345.79 1632.44 344.404C1631.1 343.145 1630.52 341.528 1631.03 340.601L1631.21 340.345L1635.1 336.199L1602.5 328.646C1601.02 328.304 1599.47 326.94 1598.85 325.494L1598.7 325.099C1598.26 323.646 1598.99 322.699 1600.36 322.84L1600.75 322.906L1640.41 332.09ZM1605.47 299.873C1606.82 301.132 1607.39 302.749 1606.89 303.676L1606.7 303.932L1602.81 308.078L1635.41 315.631C1636.89 315.974 1638.45 317.337 1639.07 318.783L1639.21 319.178C1639.65 320.632 1638.92 321.578 1637.55 321.437L1637.16 321.371L1597.5 312.187C1595.03 311.615 1592.89 308.539 1593.77 307.042L1593.94 306.808L1601.33 298.915C1602.13 298.059 1603.98 298.487 1605.47 299.873Z" fill="url(#paint62_linear_38_7182)"/>
<g filter="url(#filter12_b_38_7182)">
<path fill-rule="evenodd" clip-rule="evenodd" d="M348.136 226.95C345.347 226.878 342.674 228.065 340.856 230.181L305.415 271.431L305.703 271.515C307.355 268.798 310.373 266.919 313.991 267.056L366.538 269.05C369.957 269.179 373.027 271.178 374.529 274.252L400.046 326.484C401.419 329.295 401.234 332.306 399.986 334.756L433.601 296.235C436.056 293.422 436.586 289.411 434.947 286.055L409.28 233.515C407.76 230.404 404.636 228.398 401.175 228.309L348.136 226.95Z" fill="url(#paint63_linear_38_7182)"/>
</g>
<g filter="url(#filter13_b_38_7182)">
<path fill-rule="evenodd" clip-rule="evenodd" d="M305.296 280.409C302.215 274.103 306.976 266.79 313.99 267.056L366.538 269.049C369.956 269.179 373.026 271.178 374.528 274.251L400.045 326.483C403.126 332.79 398.364 340.103 391.351 339.836L338.803 337.843C335.384 337.714 332.314 335.715 330.813 332.641L305.296 280.409Z" fill="url(#paint64_linear_38_7182)" fill-opacity="0.398629"/>
<path d="M313.961 267.805L366.509 269.798C369.651 269.918 372.474 271.755 373.854 274.581L399.371 326.812C402.203 332.609 397.826 339.332 391.379 339.087L338.831 337.094C335.689 336.975 332.867 335.137 331.486 332.312L305.97 280.08C303.138 274.283 307.514 267.561 313.961 267.805Z" stroke="url(#paint65_linear_38_7182)" stroke-width="1.5"/>
</g>
<path fill-rule="evenodd" clip-rule="evenodd" d="M339.679 295.645C338.148 295.587 337.14 297.222 337.879 298.563L354.667 299.196C356.198 299.254 357.206 297.619 356.467 296.278L339.679 295.645ZM342.916 307.713C342.178 306.371 343.186 304.736 344.716 304.794L361.505 305.427C362.244 306.769 361.236 308.403 359.705 308.346L342.916 307.713ZM347.955 316.863C347.216 315.521 348.224 313.886 349.755 313.944L366.543 314.577C367.282 315.919 366.274 317.554 364.743 317.496L347.955 316.863Z" fill="url(#paint66_linear_38_7182)"/>
<path opacity="0.2" d="M707 621.001C580.5 655.501 424.399 816.342 381.396 896.897C414.893 917.618 452.5 960.5 479.999 948.5C485.5 888.001 595.999 705.002 707 621.001Z" fill="url(#paint67_linear_38_7182)"/>
<g filter="url(#filter14_b_38_7182)">
<path fill-rule="evenodd" clip-rule="evenodd" d="M392.136 885.951C389.347 885.879 386.674 887.066 384.856 889.182L349.415 930.432L349.703 930.516C351.355 927.799 354.373 925.92 357.991 926.057L410.538 928.051C413.957 928.18 417.027 930.179 418.529 933.253L444.046 985.485C445.419 988.296 445.234 991.307 443.986 993.757L477.601 955.236C480.056 952.423 480.586 948.412 478.947 945.056L453.28 892.516C451.76 889.405 448.636 887.399 445.175 887.31L392.136 885.951Z" fill="url(#paint68_linear_38_7182)"/>
</g>
<g filter="url(#filter15_b_38_7182)">
<path fill-rule="evenodd" clip-rule="evenodd" d="M349.296 939.41C346.215 933.104 350.976 925.791 357.99 926.057L410.538 928.05C413.956 928.18 417.026 930.179 418.528 933.252L444.045 985.484C447.126 991.791 442.364 999.103 435.351 998.837L382.803 996.844C379.384 996.715 376.314 994.716 374.813 991.642L349.296 939.41Z" fill="url(#paint69_linear_38_7182)" fill-opacity="0.398629"/>
<path d="M357.961 926.806L410.509 928.799C413.651 928.919 416.474 930.756 417.854 933.582L443.371 985.813C446.203 991.61 441.826 998.333 435.379 998.088L382.831 996.095C379.689 995.976 376.867 994.138 375.486 991.313L349.97 939.081C347.138 933.284 351.514 926.562 357.961 926.806Z" stroke="url(#paint70_linear_38_7182)" stroke-width="1.5"/>
</g>
<path fill-rule="evenodd" clip-rule="evenodd" d="M379.75 951.795L393.067 969.16C393.361 969.663 393.931 969.941 394.524 969.872L416.153 969.209C417.311 969.073 417.917 967.757 417.246 966.837C411.912 959.52 406.278 954.522 400.321 951.871C394.353 949.214 387.854 948.443 380.86 949.552C379.798 949.72 379.219 950.89 379.75 951.795ZM383.523 952.211L383.989 952.167C389.367 951.715 394.37 952.526 399.021 954.596L399.673 954.897C404.229 957.082 408.658 960.85 412.946 966.219L413.213 966.558L395.21 966.794L383.523 952.211Z" fill="url(#paint71_linear_38_7182)"/>
</g>
<defs>
<filter id="filter0_f_38_7182" x="1419.07" y="-262.998" width="738.456" height="703.088" filterUnits="userSpaceOnUse" color-interpolation-filters="sRGB">
<feFlood flood-opacity="0" result="BackgroundImageFix"/>
<feBlend mode="normal" in="SourceGraphic" in2="BackgroundImageFix" result="shape"/>
<feGaussianBlur stdDeviation="44.35" result="effect1_foregroundBlur_38_7182"/>
</filter>
<filter id="filter1_f_38_7182" x="517.49" y="-201.826" width="791.478" height="613.785" filterUnits="userSpaceOnUse" color-interpolation-filters="sRGB">
<feFlood flood-opacity="0" result="BackgroundImageFix"/>
<feBlend mode="normal" in="SourceGraphic" in2="BackgroundImageFix" result="shape"/>
<feGaussianBlur stdDeviation="69.4" result="effect1_foregroundBlur_38_7182"/>
</filter>
<filter id="filter2_f_38_7182" x="788.268" y="-149.733" width="582.069" height="513.197" filterUnits="userSpaceOnUse" color-interpolation-filters="sRGB">
<feFlood flood-opacity="0" result="BackgroundImageFix"/>
<feBlend mode="normal" in="SourceGraphic" in2="BackgroundImageFix" result="shape"/>
<feGaussianBlur stdDeviation="66.35" result="effect1_foregroundBlur_38_7182"/>
</filter>
<filter id="filter3_f_38_7182" x="-126.731" y="-70.7332" width="582.069" height="513.197" filterUnits="userSpaceOnUse" color-interpolation-filters="sRGB">
<feFlood flood-opacity="0" result="BackgroundImageFix"/>
<feBlend mode="normal" in="SourceGraphic" in2="BackgroundImageFix" result="shape"/>
<feGaussianBlur stdDeviation="66.35" result="effect1_foregroundBlur_38_7182"/>
</filter>
<filter id="filter4_f_38_7182" x="1058.77" y="432.224" width="1093.96" height="981.805" filterUnits="userSpaceOnUse" color-interpolation-filters="sRGB">
<feFlood flood-opacity="0" result="BackgroundImageFix"/>
<feBlend mode="normal" in="SourceGraphic" in2="BackgroundImageFix" result="shape"/>
<feGaussianBlur stdDeviation="21.95" result="effect1_foregroundBlur_38_7182"/>
</filter>
<filter id="filter5_f_38_7182" x="1058.77" y="432.238" width="1093.96" height="981.805" filterUnits="userSpaceOnUse" color-interpolation-filters="sRGB">
<feFlood flood-opacity="0" result="BackgroundImageFix"/>
<feBlend mode="normal" in="SourceGraphic" in2="BackgroundImageFix" result="shape"/>
<feGaussianBlur stdDeviation="21.95" result="effect1_foregroundBlur_38_7182"/>
</filter>
<filter id="filter6_b_38_7182" x="1001.31" y="-48.7" width="980.017" height="782.275" filterUnits="userSpaceOnUse" color-interpolation-filters="sRGB">
<feFlood flood-opacity="0" result="BackgroundImageFix"/>
<feGaussianBlur in="BackgroundImageFix" stdDeviation="10.1"/>
<feComposite in2="SourceAlpha" operator="in" result="effect1_backgroundBlur_38_7182"/>
<feBlend mode="normal" in="SourceGraphic" in2="effect1_backgroundBlur_38_7182" result="shape"/>
</filter>
<filter id="filter7_f_38_7182" x="1439.62" y="-54.6338" width="743.123" height="813.578" filterUnits="userSpaceOnUse" color-interpolation-filters="sRGB">
<feFlood flood-opacity="0" result="BackgroundImageFix"/>
<feBlend mode="normal" in="SourceGraphic" in2="BackgroundImageFix" result="shape"/>
<feGaussianBlur stdDeviation="38.5" result="effect1_foregroundBlur_38_7182"/>
</filter>
<filter id="filter8_b_38_7182" x="977.833" y="322.35" width="920.549" height="391.821" filterUnits="userSpaceOnUse" color-interpolation-filters="sRGB">
<feFlood flood-opacity="0" result="BackgroundImageFix"/>
<feGaussianBlur in="BackgroundImageFix" stdDeviation="2"/>
<feComposite in2="SourceAlpha" operator="in" result="effect1_backgroundBlur_38_7182"/>
<feBlend mode="normal" in="SourceGraphic" in2="effect1_backgroundBlur_38_7182" result="shape"/>
</filter>
<filter id="filter9_b_38_7182" x="924.054" y="567.225" width="806.244" height="376.208" filterUnits="userSpaceOnUse" color-interpolation-filters="sRGB">
<feFlood flood-opacity="0" result="BackgroundImageFix"/>
<feGaussianBlur in="BackgroundImageFix" stdDeviation="2"/>
<feComposite in2="SourceAlpha" operator="in" result="effect1_backgroundBlur_38_7182"/>
<feBlend mode="normal" in="SourceGraphic" in2="effect1_backgroundBlur_38_7182" result="shape"/>
</filter>
<filter id="filter10_bd_38_7182" x="1552.45" y="214.814" width="189.86" height="174.537" filterUnits="userSpaceOnUse" color-interpolation-filters="sRGB">
<feFlood flood-opacity="0" result="BackgroundImageFix"/>
<feGaussianBlur in="BackgroundImageFix" stdDeviation="8.41267"/>
<feComposite in2="SourceAlpha" operator="in" result="effect1_backgroundBlur_38_7182"/>
<feColorMatrix in="SourceAlpha" type="matrix" values="0 0 0 0 0 0 0 0 0 0 0 0 0 0 0 0 0 0 127 0" result="hardAlpha"/>
<feOffset dx="12" dy="-3.99999"/>
<feGaussianBlur stdDeviation="9.99999"/>
<feColorMatrix type="matrix" values="0 0 0 0 0.179432 0 0 0 0 0.0351319 0 0 0 0 0.630548 0 0 0 0.103447 0"/>
<feBlend mode="normal" in2="effect1_backgroundBlur_38_7182" result="effect2_dropShadow_38_7182"/>
<feBlend mode="normal" in="SourceGraphic" in2="effect2_dropShadow_38_7182" result="shape"/>
</filter>
<filter id="filter11_b_38_7182" x="1549.27" y="247.907" width="149.727" height="146.333" filterUnits="userSpaceOnUse" color-interpolation-filters="sRGB">
<feFlood flood-opacity="0" result="BackgroundImageFix"/>
<feGaussianBlur in="BackgroundImageFix" stdDeviation="8.41267"/>
<feComposite in2="SourceAlpha" operator="in" result="effect1_backgroundBlur_38_7182"/>
<feBlend mode="normal" in="SourceGraphic" in2="effect1_backgroundBlur_38_7182" result="shape"/>
</filter>
<filter id="filter12_b_38_7182" x="292.796" y="214.327" width="155.713" height="133.048" filterUnits="userSpaceOnUse" color-interpolation-filters="sRGB">
<feFlood flood-opacity="0" result="BackgroundImageFix"/>
<feGaussianBlur in="BackgroundImageFix" stdDeviation="6.3095"/>
<feComposite in2="SourceAlpha" operator="in" result="effect1_backgroundBlur_38_7182"/>
<feBlend mode="normal" in="SourceGraphic" in2="effect1_backgroundBlur_38_7182" result="shape"/>
</filter>
<filter id="filter13_b_38_7182" x="291.721" y="254.43" width="121.898" height="98.0329" filterUnits="userSpaceOnUse" color-interpolation-filters="sRGB">
<feFlood flood-opacity="0" result="BackgroundImageFix"/>
<feGaussianBlur in="BackgroundImageFix" stdDeviation="6.3095"/>
<feComposite in2="SourceAlpha" operator="in" result="effect1_backgroundBlur_38_7182"/>
<feBlend mode="normal" in="SourceGraphic" in2="effect1_backgroundBlur_38_7182" result="shape"/>
</filter>
<filter id="filter14_b_38_7182" x="336.796" y="873.328" width="155.713" height="133.048" filterUnits="userSpaceOnUse" color-interpolation-filters="sRGB">
<feFlood flood-opacity="0" result="BackgroundImageFix"/>
<feGaussianBlur in="BackgroundImageFix" stdDeviation="6.3095"/>
<feComposite in2="SourceAlpha" operator="in" result="effect1_backgroundBlur_38_7182"/>
<feBlend mode="normal" in="SourceGraphic" in2="effect1_backgroundBlur_38_7182" result="shape"/>
</filter>
<filter id="filter15_b_38_7182" x="335.721" y="913.431" width="121.898" height="98.0329" filterUnits="userSpaceOnUse" color-interpolation-filters="sRGB">
<feFlood flood-opacity="0" result="BackgroundImageFix"/>
<feGaussianBlur in="BackgroundImageFix" stdDeviation="6.3095"/>
<feComposite in2="SourceAlpha" operator="in" result="effect1_backgroundBlur_38_7182"/>
<feBlend mode="normal" in="SourceGraphic" in2="effect1_backgroundBlur_38_7182" result="shape"/>
</filter>
<linearGradient id="paint0_linear_38_7182" x1="2219.99" y1="-34.5862" x2="766.236" y2="-1031.99" gradientUnits="userSpaceOnUse">
<stop stop-color="#E1E9FF"/>
<stop offset="0.374009" stop-color="#D3FAFF"/>
<stop offset="0.999454" stop-color="#2482D9"/>
</linearGradient>
<radialGradient id="paint1_radial_38_7182" cx="0" cy="0" r="1" gradientUnits="userSpaceOnUse" gradientTransform="translate(928 540) rotate(33.1606) scale(1080.46 1307)">
<stop stop-color="#E6E9FF"/>
<stop offset="1" stop-color="#FDFDFD" stop-opacity="0"/>
</radialGradient>
<radialGradient id="paint2_angular_38_7182" cx="0" cy="0" r="1" gradientUnits="userSpaceOnUse" gradientTransform="translate(1605.75 923.127) scale(616.106 270.361)">
<stop offset="0.546998" stop-color="#2714FF" stop-opacity="0.396717"/>
<stop offset="0.950642" stop-color="white" stop-opacity="0.705209"/>
</radialGradient>
<radialGradient id="paint3_angular_38_7182" cx="0" cy="0" r="1" gradientUnits="userSpaceOnUse" gradientTransform="translate(1605.75 923.14) scale(616.106 270.361)">
<stop offset="0.546998" stop-color="#1435FF"/>
<stop offset="0.959503" stop-color="white" stop-opacity="0.705209"/>
</radialGradient>
<linearGradient id="paint4_linear_38_7182" x1="-80" y1="785" x2="616.5" y2="830.5" gradientUnits="userSpaceOnUse">
<stop stop-color="#BDF3FF"/>
<stop offset="1" stop-color="#E1EDFF"/>
</linearGradient>
<linearGradient id="paint5_linear_38_7182" x1="1014.5" y1="525" x2="45.0001" y2="917" gradientUnits="userSpaceOnUse">
<stop stop-color="white" stop-opacity="0"/>
<stop offset="0.665184" stop-color="white"/>
<stop offset="1" stop-color="white" stop-opacity="0"/>
</linearGradient>
<linearGradient id="paint6_linear_38_7182" x1="-80" y1="785" x2="514" y2="932" gradientUnits="userSpaceOnUse">
<stop stop-color="#BDF3FF"/>
<stop offset="0.630208" stop-color="#E1EDFF"/>
</linearGradient>
<linearGradient id="paint7_linear_38_7182" x1="1014.5" y1="525" x2="45.0001" y2="917" gradientUnits="userSpaceOnUse">
<stop stop-color="white" stop-opacity="0"/>
<stop offset="0.665184" stop-color="white"/>
<stop offset="1" stop-color="white" stop-opacity="0"/>
</linearGradient>
<linearGradient id="paint8_linear_38_7182" x1="33" y1="394" x2="713.5" y2="592" gradientUnits="userSpaceOnUse">
<stop stop-color="#C1E4FF"/>
<stop offset="1" stop-color="#C1E4FF" stop-opacity="0.21"/>
</linearGradient>
<linearGradient id="paint9_linear_38_7182" x1="205" y1="551" x2="889" y2="560" gradientUnits="userSpaceOnUse">
<stop stop-color="white"/>
<stop offset="1" stop-color="white" stop-opacity="0"/>
</linearGradient>
<linearGradient id="paint10_linear_38_7182" x1="248" y1="288" x2="1153.5" y2="506" gradientUnits="userSpaceOnUse">
<stop stop-color="#A6D2FF"/>
<stop offset="0.8125" stop-color="#A6D2FF" stop-opacity="0.18"/>
<stop offset="1" stop-color="#A6D2FF" stop-opacity="0"/>
</linearGradient>
<linearGradient id="paint11_linear_38_7182" x1="272" y1="129" x2="1124" y2="505" gradientUnits="userSpaceOnUse">
<stop stop-color="white" stop-opacity="0"/>
<stop offset="0.233591" stop-color="white"/>
<stop offset="0.464981" stop-color="white"/>
<stop offset="1" stop-color="white" stop-opacity="0"/>
</linearGradient>
<linearGradient id="paint12_linear_38_7182" x1="625.309" y1="144.991" x2="625.309" y2="552" gradientUnits="userSpaceOnUse">
<stop stop-color="white"/>
<stop offset="1" stop-color="white" stop-opacity="0"/>
</linearGradient>
<linearGradient id="paint13_linear_38_7182" x1="607.309" y1="182.991" x2="607.309" y2="552" gradientUnits="userSpaceOnUse">
<stop stop-color="white"/>
<stop offset="1" stop-color="white" stop-opacity="0"/>
</linearGradient>
<linearGradient id="paint14_linear_38_7182" x1="601.309" y1="194.991" x2="601.309" y2="552" gradientUnits="userSpaceOnUse">
<stop stop-color="white"/>
<stop offset="1" stop-color="white" stop-opacity="0"/>
</linearGradient>
<linearGradient id="paint15_linear_38_7182" x1="595.309" y1="206.991" x2="595.309" y2="552" gradientUnits="userSpaceOnUse">
<stop stop-color="white"/>
<stop offset="1" stop-color="white" stop-opacity="0"/>
</linearGradient>
<linearGradient id="paint16_linear_38_7182" x1="589.309" y1="218.991" x2="589.309" y2="552" gradientUnits="userSpaceOnUse">
<stop stop-color="white"/>
<stop offset="1" stop-color="white" stop-opacity="0"/>
</linearGradient>
<linearGradient id="paint17_linear_38_7182" x1="583.309" y1="230.991" x2="583.309" y2="552" gradientUnits="userSpaceOnUse">
<stop stop-color="white"/>
<stop offset="1" stop-color="white" stop-opacity="0"/>
</linearGradient>
<linearGradient id="paint18_linear_38_7182" x1="577.309" y1="242.991" x2="577.309" y2="552" gradientUnits="userSpaceOnUse">
<stop stop-color="white"/>
<stop offset="1" stop-color="white" stop-opacity="0"/>
</linearGradient>
<linearGradient id="paint19_linear_38_7182" x1="597.25" y1="321.857" x2="597.25" y2="552" gradientUnits="userSpaceOnUse">
<stop stop-color="white"/>
<stop offset="1" stop-color="white" stop-opacity="0"/>
</linearGradient>
<linearGradient id="paint20_linear_38_7182" x1="591.25" y1="333.857" x2="591.25" y2="552" gradientUnits="userSpaceOnUse">
<stop stop-color="white"/>
<stop offset="1" stop-color="white" stop-opacity="0"/>
</linearGradient>
<linearGradient id="paint21_linear_38_7182" x1="610" y1="377.44" x2="610" y2="552" gradientUnits="userSpaceOnUse">
<stop stop-color="white"/>
<stop offset="1" stop-color="white" stop-opacity="0"/>
</linearGradient>
<linearGradient id="paint22_linear_38_7182" x1="157.404" y1="-94" x2="157.404" y2="444.5" gradientUnits="userSpaceOnUse">
<stop stop-color="#C1E4FF"/>
<stop offset="1" stop-color="#81C8FF"/>
</linearGradient>
<linearGradient id="paint23_linear_38_7182" x1="193.5" y1="117.5" x2="149.5" y2="445" gradientUnits="userSpaceOnUse">
<stop offset="0.0569032" stop-color="#0075FE" stop-opacity="0"/>
<stop offset="0.525883" stop-color="#0084FE"/>
<stop offset="1" stop-color="#0056FE" stop-opacity="0"/>
</linearGradient>
<linearGradient id="paint24_linear_38_7182" x1="769.389" y1="559" x2="769.389" y2="1150" gradientUnits="userSpaceOnUse">
<stop stop-color="#F1F8FF"/>
<stop offset="1" stop-color="#CCE5FF" stop-opacity="0"/>
</linearGradient>
<linearGradient id="paint25_linear_38_7182" x1="769.389" y1="559" x2="743" y2="983.5" gradientUnits="userSpaceOnUse">
<stop stop-color="white" stop-opacity="0"/>
<stop offset="1" stop-color="white"/>
</linearGradient>
<linearGradient id="paint26_linear_38_7182" x1="1185.2" y1="559" x2="1185.2" y2="1150" gradientUnits="userSpaceOnUse">
<stop stop-color="#CCE5FF"/>
<stop offset="1" stop-color="#CCE5FF" stop-opacity="0"/>
</linearGradient>
<linearGradient id="paint27_linear_38_7182" x1="1185.2" y1="559" x2="1185.2" y2="1150" gradientUnits="userSpaceOnUse">
<stop stop-color="white" stop-opacity="0"/>
<stop offset="0.618228" stop-color="white"/>
</linearGradient>
<linearGradient id="paint28_linear_38_7182" x1="1773" y1="-28" x2="1282.5" y2="681.5" gradientUnits="userSpaceOnUse">
<stop stop-color="#D1E3FF"/>
<stop offset="1" stop-color="#D1E3FF" stop-opacity="0"/>
</linearGradient>
<linearGradient id="paint29_linear_38_7182" x1="1543" y1="257.5" x2="1550.5" y2="690.5" gradientUnits="userSpaceOnUse">
<stop stop-color="white"/>
<stop offset="1" stop-color="white" stop-opacity="0"/>
</linearGradient>
<linearGradient id="paint30_linear_38_7182" x1="1458.16" y1="-28" x2="1031.5" y2="727" gradientUnits="userSpaceOnUse">
<stop stop-color="#BED6FF"/>
<stop offset="1" stop-color="#BED6FF" stop-opacity="0"/>
</linearGradient>
<linearGradient id="paint31_linear_38_7182" x1="1674" y1="300" x2="1458.16" y2="837.257" gradientUnits="userSpaceOnUse">
<stop stop-color="white"/>
<stop offset="1" stop-color="white" stop-opacity="0"/>
</linearGradient>
<linearGradient id="paint32_linear_38_7182" x1="1674" y1="300" x2="1458.16" y2="837.257" gradientUnits="userSpaceOnUse">
<stop stop-color="white"/>
<stop offset="1" stop-color="white" stop-opacity="0"/>
</linearGradient>
<radialGradient id="paint33_radial_38_7182" cx="0" cy="0" r="1" gradientUnits="userSpaceOnUse" gradientTransform="translate(1421.61 329.412) rotate(90) scale(345.412 463.488)">
<stop stop-color="white"/>
<stop offset="0.46875" stop-color="white"/>
<stop offset="1" stop-color="white" stop-opacity="0"/>
</radialGradient>
<radialGradient id="paint34_radial_38_7182" cx="0" cy="0" r="1" gradientUnits="userSpaceOnUse" gradientTransform="translate(1427.6 335.99) rotate(90) scale(339.99 469.481)">
<stop stop-color="white"/>
<stop offset="0.46875" stop-color="white"/>
<stop offset="1" stop-color="white" stop-opacity="0"/>
</radialGradient>
<radialGradient id="paint35_radial_38_7182" cx="0" cy="0" r="1" gradientUnits="userSpaceOnUse" gradientTransform="translate(1433.59 342.581) rotate(90) scale(334.581 475.474)">
<stop stop-color="white"/>
<stop offset="0.46875" stop-color="white"/>
<stop offset="1" stop-color="white" stop-opacity="0"/>
</radialGradient>
<radialGradient id="paint36_radial_38_7182" cx="0" cy="0" r="1" gradientUnits="userSpaceOnUse" gradientTransform="translate(1439.59 349.187) rotate(90) scale(329.187 481.468)">
<stop stop-color="white"/>
<stop offset="0.46875" stop-color="white"/>
<stop offset="1" stop-color="white" stop-opacity="0"/>
</radialGradient>
<radialGradient id="paint37_radial_38_7182" cx="0" cy="0" r="1" gradientUnits="userSpaceOnUse" gradientTransform="translate(1445.58 355.809) rotate(90) scale(323.809 487.462)">
<stop stop-color="white"/>
<stop offset="0.46875" stop-color="white"/>
<stop offset="1" stop-color="white" stop-opacity="0"/>
</radialGradient>
<radialGradient id="paint38_radial_38_7182" cx="0" cy="0" r="1" gradientUnits="userSpaceOnUse" gradientTransform="translate(1451.57 362.446) rotate(90) scale(318.446 493.456)">
<stop stop-color="white"/>
<stop offset="0.46875" stop-color="white"/>
<stop offset="1" stop-color="white" stop-opacity="0"/>
</radialGradient>
<radialGradient id="paint39_radial_38_7182" cx="0" cy="0" r="1" gradientUnits="userSpaceOnUse" gradientTransform="translate(1457.57 369.099) rotate(90) scale(313.099 499.451)">
<stop stop-color="white"/>
<stop offset="0.46875" stop-color="white"/>
<stop offset="1" stop-color="white" stop-opacity="0"/>
</radialGradient>
<radialGradient id="paint40_radial_38_7182" cx="0" cy="0" r="1" gradientUnits="userSpaceOnUse" gradientTransform="translate(1463.56 375.77) rotate(90) scale(307.77 505.446)">
<stop stop-color="white"/>
<stop offset="0.46875" stop-color="white"/>
<stop offset="1" stop-color="white" stop-opacity="0"/>
</radialGradient>
<radialGradient id="paint41_radial_38_7182" cx="0" cy="0" r="1" gradientUnits="userSpaceOnUse" gradientTransform="translate(1469.56 382.458) rotate(90) scale(302.458 511.441)">
<stop stop-color="white"/>
<stop offset="0.46875" stop-color="white"/>
<stop offset="1" stop-color="white" stop-opacity="0"/>
</radialGradient>
<radialGradient id="paint42_radial_38_7182" cx="0" cy="0" r="1" gradientUnits="userSpaceOnUse" gradientTransform="translate(1475.55 389.164) rotate(90) scale(297.164 517.436)">
<stop stop-color="white"/>
<stop offset="0.46875" stop-color="white"/>
<stop offset="1" stop-color="white" stop-opacity="0"/>
</radialGradient>
<radialGradient id="paint43_radial_38_7182" cx="0" cy="0" r="1" gradientUnits="userSpaceOnUse" gradientTransform="translate(1481.55 395.888) rotate(90) scale(291.888 523.432)">
<stop stop-color="white"/>
<stop offset="0.46875" stop-color="white"/>
<stop offset="1" stop-color="white" stop-opacity="0"/>
</radialGradient>
<radialGradient id="paint44_radial_38_7182" cx="0" cy="0" r="1" gradientUnits="userSpaceOnUse" gradientTransform="translate(1487.55 402.633) rotate(90) scale(286.633 529.428)">
<stop stop-color="white"/>
<stop offset="0.46875" stop-color="white"/>
<stop offset="1" stop-color="white" stop-opacity="0"/>
</radialGradient>
<linearGradient id="paint45_linear_38_7182" x1="1838.83" y1="734.97" x2="970.087" y2="701.395" gradientUnits="userSpaceOnUse">
<stop stop-color="white"/>
<stop offset="1" stop-color="white" stop-opacity="0"/>
</linearGradient>
<linearGradient id="paint46_linear_38_7182" x1="1827.98" y1="729.903" x2="969.927" y2="696.021" gradientUnits="userSpaceOnUse">
<stop stop-color="white"/>
<stop offset="1" stop-color="white" stop-opacity="0"/>
</linearGradient>
<linearGradient id="paint47_linear_38_7182" x1="1858.62" y1="724.08" x2="970.705" y2="686.297" gradientUnits="userSpaceOnUse">
<stop stop-color="white"/>
<stop offset="1" stop-color="white" stop-opacity="0"/>
</linearGradient>
<linearGradient id="paint48_linear_38_7182" x1="1847.77" y1="719.475" x2="970.554" y2="681.355" gradientUnits="userSpaceOnUse">
<stop stop-color="white"/>
<stop offset="1" stop-color="white" stop-opacity="0"/>
</linearGradient>
<linearGradient id="paint49_linear_38_7182" x1="1847.78" y1="711.065" x2="970.924" y2="670.474" gradientUnits="userSpaceOnUse">
<stop stop-color="white"/>
<stop offset="1" stop-color="white" stop-opacity="0"/>
</linearGradient>
<linearGradient id="paint50_linear_38_7182" x1="1847.8" y1="702.603" x2="971.361" y2="659.18" gradientUnits="userSpaceOnUse">
<stop stop-color="white"/>
<stop offset="1" stop-color="white" stop-opacity="0"/>
</linearGradient>
<linearGradient id="paint51_linear_38_7182" x1="1847.95" y1="695.847" x2="973.161" y2="649.995" gradientUnits="userSpaceOnUse">
<stop stop-color="white"/>
<stop offset="1" stop-color="white" stop-opacity="0"/>
</linearGradient>
<linearGradient id="paint52_linear_38_7182" x1="1848" y1="689.5" x2="974" y2="641" gradientUnits="userSpaceOnUse">
<stop stop-color="white"/>
<stop offset="1" stop-color="white" stop-opacity="0"/>
</linearGradient>
<linearGradient id="paint53_linear_38_7182" x1="1437.87" y1="327" x2="1056" y2="695" gradientUnits="userSpaceOnUse">
<stop stop-color="#EAF2FF"/>
<stop offset="1" stop-color="#E3EEFF" stop-opacity="0"/>
</linearGradient>
<linearGradient id="paint54_linear_38_7182" x1="1813" y1="327" x2="1437.87" y2="709.671" gradientUnits="userSpaceOnUse">
<stop stop-color="white"/>
<stop offset="1" stop-color="white" stop-opacity="0"/>
</linearGradient>
<linearGradient id="paint55_linear_38_7182" x1="1610.5" y1="818.5" x2="986" y2="731.5" gradientUnits="userSpaceOnUse">
<stop stop-color="#BDE9FF"/>
<stop offset="1" stop-color="#CBEDFE" stop-opacity="0"/>
</linearGradient>
<linearGradient id="paint56_linear_38_7182" x1="1412.32" y1="585.092" x2="1180.89" y2="926.961" gradientUnits="userSpaceOnUse">
<stop stop-color="white"/>
<stop offset="1" stop-color="white" stop-opacity="0"/>
</linearGradient>
<linearGradient id="paint57_linear_38_7182" x1="1655.09" y1="337.522" x2="1374.7" y2="480.452" gradientUnits="userSpaceOnUse">
<stop stop-color="#99D2FF"/>
<stop offset="0.978409" stop-color="#99D2FF" stop-opacity="0"/>
</linearGradient>
<linearGradient id="paint58_linear_38_7182" x1="1608.83" y1="278.538" x2="1744.51" y2="322.123" gradientUnits="userSpaceOnUse">
<stop stop-color="#DBF0FF"/>
<stop offset="0.285567" stop-color="#E4EBFE" stop-opacity="0.907479"/>
<stop offset="0.46874" stop-color="#ADBFFF"/>
<stop offset="0.75597" stop-color="#CEDFFF"/>
<stop offset="1" stop-color="#B7CBFF"/>
</linearGradient>
<linearGradient id="paint59_linear_38_7182" x1="1596.37" y1="297.37" x2="1720.12" y2="331.304" gradientUnits="userSpaceOnUse">
<stop stop-color="#DAFAFF"/>
<stop offset="0.517346" stop-color="white"/>
<stop offset="1" stop-color="#DFE6FF"/>
</linearGradient>
<linearGradient id="paint60_linear_38_7182" x1="1515.67" y1="338.095" x2="1659.17" y2="397.63" gradientUnits="userSpaceOnUse">
<stop stop-color="#DBE0FF" stop-opacity="0.402153"/>
<stop offset="0.282616" stop-color="#F1E4FE" stop-opacity="0.20083"/>
<stop offset="0.482599" stop-color="#ADC9FF" stop-opacity="0.403928"/>
<stop offset="0.761145" stop-color="#CED3FF" stop-opacity="0.202169"/>
<stop offset="1" stop-color="#B7CBFF" stop-opacity="0.397126"/>
</linearGradient>
<linearGradient id="paint61_linear_38_7182" x1="1639.5" y1="251.833" x2="1607.02" y2="273.494" gradientUnits="userSpaceOnUse">
<stop stop-color="white"/>
<stop offset="1" stop-color="white" stop-opacity="0.01"/>
</linearGradient>
<linearGradient id="paint62_linear_38_7182" x1="1582.24" y1="333.296" x2="1640.67" y2="350.582" gradientUnits="userSpaceOnUse">
<stop stop-color="#4F80FF"/>
<stop offset="0.822746" stop-color="#567BFF"/>
<stop offset="1" stop-color="#71F2FF"/>
</linearGradient>
<linearGradient id="paint63_linear_38_7182" x1="308.411" y1="244.925" x2="414.073" y2="328.662" gradientUnits="userSpaceOnUse">
<stop stop-color="white" stop-opacity="0.03"/>
<stop offset="0.351337" stop-color="#E4EDFE"/>
<stop offset="0.54524" stop-color="#ADC9FF" stop-opacity="0.403928"/>
<stop offset="0.761145" stop-color="#CED3FF" stop-opacity="0.202169"/>
<stop offset="1" stop-color="#B7CBFF" stop-opacity="0.397126"/>
</linearGradient>
<linearGradient id="paint64_linear_38_7182" x1="370.063" y1="270.314" x2="361.371" y2="321.722" gradientUnits="userSpaceOnUse">
<stop stop-color="#F9FBFE" stop-opacity="0"/>
<stop offset="0.82636" stop-color="#F9FBFE"/>
</linearGradient>
<linearGradient id="paint65_linear_38_7182" x1="355.804" y1="250.345" x2="334.335" y2="270.251" gradientUnits="userSpaceOnUse">
<stop stop-color="white"/>
<stop offset="1" stop-color="white" stop-opacity="0.01"/>
</linearGradient>
<linearGradient id="paint66_linear_38_7182" x1="337.773" y1="314.52" x2="365.887" y2="313.175" gradientUnits="userSpaceOnUse">
<stop stop-color="#4F80FF"/>
<stop offset="0.822746" stop-color="#567BFF"/>
<stop offset="1" stop-color="#71F2FF"/>
</linearGradient>
<linearGradient id="paint67_linear_38_7182" x1="409.879" y1="927.927" x2="657.159" y2="733.248" gradientUnits="userSpaceOnUse">
<stop stop-color="#99A3FF"/>
<stop offset="0.978409" stop-color="#99D2FF" stop-opacity="0"/>
</linearGradient>
<linearGradient id="paint68_linear_38_7182" x1="352.411" y1="903.926" x2="458.073" y2="987.663" gradientUnits="userSpaceOnUse">
<stop stop-color="white" stop-opacity="0.03"/>
<stop offset="0.351337" stop-color="#E4EDFE"/>
<stop offset="0.54524" stop-color="#ADC9FF" stop-opacity="0.403928"/>
<stop offset="0.761145" stop-color="#CED3FF" stop-opacity="0.202169"/>
<stop offset="1" stop-color="#B7CBFF" stop-opacity="0.397126"/>
</linearGradient>
<linearGradient id="paint69_linear_38_7182" x1="414.063" y1="929.315" x2="405.371" y2="980.723" gradientUnits="userSpaceOnUse">
<stop stop-color="#F9FBFE" stop-opacity="0"/>
<stop offset="0.82636" stop-color="#F9FBFE"/>
</linearGradient>
<linearGradient id="paint70_linear_38_7182" x1="399.804" y1="909.346" x2="378.335" y2="929.252" gradientUnits="userSpaceOnUse">
<stop stop-color="white"/>
<stop offset="1" stop-color="white" stop-opacity="0.01"/>
</linearGradient>
<linearGradient id="paint71_linear_38_7182" x1="378.289" y1="971.24" x2="415.976" y2="972.533" gradientUnits="userSpaceOnUse">
<stop stop-color="#4F80FF"/>
<stop offset="0.822746" stop-color="#567BFF"/>
<stop offset="1" stop-color="#71F2FF"/>
</linearGradient>
<clipPath id="clip0_38_7182">
<rect width="1920" height="1080" fill="white"/>
</clipPath>
</defs>
</svg>
